%TF.GenerationSoftware,KiCad,Pcbnew,9.0.0*%
%TF.CreationDate,2025-11-26T21:42:54+01:00*%
%TF.ProjectId,Battery power module,42617474-6572-4792-9070-6f776572206d,rev?*%
%TF.SameCoordinates,Original*%
%TF.FileFunction,Copper,L2,Bot*%
%TF.FilePolarity,Positive*%
%FSLAX46Y46*%
G04 Gerber Fmt 4.6, Leading zero omitted, Abs format (unit mm)*
G04 Created by KiCad (PCBNEW 9.0.0) date 2025-11-26 21:42:54*
%MOMM*%
%LPD*%
G01*
G04 APERTURE LIST*
G04 Aperture macros list*
%AMRoundRect*
0 Rectangle with rounded corners*
0 $1 Rounding radius*
0 $2 $3 $4 $5 $6 $7 $8 $9 X,Y pos of 4 corners*
0 Add a 4 corners polygon primitive as box body*
4,1,4,$2,$3,$4,$5,$6,$7,$8,$9,$2,$3,0*
0 Add four circle primitives for the rounded corners*
1,1,$1+$1,$2,$3*
1,1,$1+$1,$4,$5*
1,1,$1+$1,$6,$7*
1,1,$1+$1,$8,$9*
0 Add four rect primitives between the rounded corners*
20,1,$1+$1,$2,$3,$4,$5,0*
20,1,$1+$1,$4,$5,$6,$7,0*
20,1,$1+$1,$6,$7,$8,$9,0*
20,1,$1+$1,$8,$9,$2,$3,0*%
G04 Aperture macros list end*
%TA.AperFunction,ComponentPad*%
%ADD10C,1.600000*%
%TD*%
%TA.AperFunction,ComponentPad*%
%ADD11O,1.600000X1.600000*%
%TD*%
%TA.AperFunction,HeatsinkPad*%
%ADD12O,1.100000X1.700000*%
%TD*%
%TA.AperFunction,HeatsinkPad*%
%ADD13C,0.600000*%
%TD*%
%TA.AperFunction,HeatsinkPad*%
%ADD14R,1.880000X1.570000*%
%TD*%
%TA.AperFunction,ComponentPad*%
%ADD15O,1.750000X1.200000*%
%TD*%
%TA.AperFunction,ComponentPad*%
%ADD16RoundRect,0.250000X-0.625000X0.350000X-0.625000X-0.350000X0.625000X-0.350000X0.625000X0.350000X0*%
%TD*%
%TA.AperFunction,ViaPad*%
%ADD17C,0.600000*%
%TD*%
%TA.AperFunction,ViaPad*%
%ADD18C,1.340000*%
%TD*%
%TA.AperFunction,ViaPad*%
%ADD19C,0.620000*%
%TD*%
%TA.AperFunction,Conductor*%
%ADD20C,0.254000*%
%TD*%
G04 APERTURE END LIST*
D10*
%TO.P,TH1,1*%
%TO.N,/TS*%
X128749000Y-101498400D03*
D11*
%TO.P,TH1,2*%
%TO.N,GND*%
X131289000Y-101498400D03*
%TD*%
D12*
%TO.P,J1,S1,SHIELD*%
%TO.N,GND*%
X125360000Y-113607800D03*
X125360000Y-117407800D03*
X134000000Y-113607800D03*
X134000000Y-117407800D03*
%TD*%
D13*
%TO.P,U1,11,VSS*%
%TO.N,GND*%
X128514000Y-106888000D03*
X129794000Y-106888000D03*
D14*
X129154000Y-106403000D03*
D13*
X128514000Y-105918000D03*
X129794000Y-105918000D03*
%TD*%
D15*
%TO.P,J2,2,Pin_2*%
%TO.N,VCC*%
X123291600Y-104444800D03*
D16*
%TO.P,J2,1,Pin_1*%
%TO.N,GND*%
X123291600Y-102444800D03*
%TD*%
D17*
%TO.N,GND*%
X133604000Y-100812600D03*
X132892800Y-101498400D03*
D18*
X123266200Y-109220000D03*
X124866400Y-109169200D03*
X123266200Y-107696000D03*
X124866400Y-107645200D03*
X133502400Y-104597200D03*
X133502400Y-106403000D03*
X132130800Y-105638600D03*
X132130800Y-107467400D03*
D17*
X131241800Y-106426000D03*
D19*
%TO.N,VCC*%
X131191000Y-103367300D03*
X127406400Y-104254600D03*
%TD*%
D20*
%TO.N,VCC*%
X128841200Y-104254600D02*
X127406400Y-104254600D01*
X128854200Y-104241600D02*
X128841200Y-104254600D01*
X131191000Y-103367300D02*
X130316700Y-104241600D01*
X130316700Y-104241600D02*
X128854200Y-104241600D01*
%TD*%
%TA.AperFunction,Conductor*%
%TO.N,GND*%
G36*
X126627045Y-104491006D02*
G01*
X126627048Y-104491018D01*
X126688142Y-104638514D01*
X126688144Y-104638518D01*
X126776839Y-104771259D01*
X126776845Y-104771267D01*
X126889732Y-104884154D01*
X126889740Y-104884160D01*
X127022481Y-104972855D01*
X127022485Y-104972857D01*
X127169981Y-105033951D01*
X127169986Y-105033953D01*
X127326568Y-105065099D01*
X127326572Y-105065100D01*
X127326573Y-105065100D01*
X127486228Y-105065100D01*
X127502868Y-105061789D01*
X127623708Y-105037753D01*
X127633306Y-105036138D01*
X127635735Y-105035361D01*
X127642814Y-105033953D01*
X127647114Y-105032171D01*
X127656780Y-105028629D01*
X128096517Y-104887992D01*
X128134290Y-104882100D01*
X128903004Y-104882100D01*
X128903004Y-104882099D01*
X128956380Y-104871482D01*
X128980571Y-104869100D01*
X130378504Y-104869100D01*
X130378505Y-104869099D01*
X130499735Y-104844986D01*
X130582548Y-104810683D01*
X130613933Y-104797683D01*
X130716708Y-104729011D01*
X130804111Y-104641608D01*
X131051719Y-104394000D01*
X131318000Y-104394000D01*
X131318000Y-108712000D01*
X126492000Y-108712000D01*
X126492000Y-104394000D01*
X126607749Y-104394000D01*
X126627045Y-104491006D01*
G37*
%TD.AperFunction*%
%TD*%
%TA.AperFunction,Conductor*%
%TO.N,GND*%
G36*
X127690330Y-100519985D02*
G01*
X127736085Y-100572789D01*
X127746029Y-100641947D01*
X127723610Y-100697185D01*
X127636712Y-100816790D01*
X127543781Y-100999176D01*
X127480522Y-101193865D01*
X127448500Y-101396048D01*
X127448500Y-101600751D01*
X127480522Y-101802934D01*
X127543781Y-101997623D01*
X127607691Y-102123053D01*
X127618734Y-102144725D01*
X127636715Y-102180013D01*
X127757028Y-102345613D01*
X127901786Y-102490371D01*
X127993220Y-102556800D01*
X128067390Y-102610687D01*
X128130188Y-102642684D01*
X128249776Y-102703618D01*
X128249778Y-102703618D01*
X128249781Y-102703620D01*
X128354137Y-102737527D01*
X128444465Y-102766877D01*
X128465307Y-102770178D01*
X128646648Y-102798900D01*
X128646649Y-102798900D01*
X128851351Y-102798900D01*
X128851352Y-102798900D01*
X129053534Y-102766877D01*
X129248219Y-102703620D01*
X129430610Y-102610687D01*
X129523590Y-102543132D01*
X129596213Y-102490371D01*
X129596215Y-102490368D01*
X129596219Y-102490366D01*
X129740966Y-102345619D01*
X129740968Y-102345615D01*
X129740971Y-102345613D01*
X129845913Y-102201170D01*
X129861287Y-102180010D01*
X129908795Y-102086769D01*
X129956770Y-102035974D01*
X130024591Y-102019179D01*
X130090725Y-102041716D01*
X130129765Y-102086770D01*
X130177140Y-102179749D01*
X130297417Y-102345294D01*
X130297417Y-102345295D01*
X130442104Y-102489982D01*
X130602654Y-102606629D01*
X130609504Y-102615512D01*
X130619235Y-102621089D01*
X130630456Y-102642684D01*
X130645319Y-102661959D01*
X130646278Y-102673134D01*
X130651451Y-102683088D01*
X130649215Y-102707323D01*
X130651298Y-102731572D01*
X130645896Y-102743302D01*
X130645033Y-102752663D01*
X130633520Y-102770178D01*
X130627485Y-102783285D01*
X130622810Y-102789268D01*
X130561443Y-102850636D01*
X130483607Y-102967125D01*
X130480952Y-102970854D01*
X130480931Y-102970882D01*
X130477924Y-102975107D01*
X130475637Y-102978860D01*
X130472871Y-102983194D01*
X130472741Y-102983388D01*
X130470967Y-102987670D01*
X130466636Y-102997007D01*
X130255134Y-103407411D01*
X130253965Y-103409012D01*
X130253743Y-103410033D01*
X130232591Y-103438288D01*
X130093098Y-103577782D01*
X130031778Y-103611266D01*
X130005419Y-103614100D01*
X128792396Y-103614100D01*
X128762906Y-103619966D01*
X128739020Y-103624717D01*
X128714830Y-103627100D01*
X128134292Y-103627100D01*
X128096519Y-103621207D01*
X128074297Y-103614100D01*
X127651863Y-103478995D01*
X127642814Y-103475247D01*
X127635749Y-103473841D01*
X127633302Y-103473059D01*
X127630063Y-103472121D01*
X127630018Y-103472107D01*
X127606370Y-103465261D01*
X127605134Y-103464940D01*
X127605130Y-103464939D01*
X127521916Y-103450377D01*
X127510052Y-103448838D01*
X127486229Y-103444100D01*
X127486227Y-103444100D01*
X127326573Y-103444100D01*
X127326568Y-103444100D01*
X127169993Y-103475245D01*
X127169981Y-103475248D01*
X127022485Y-103536342D01*
X127022481Y-103536344D01*
X126889740Y-103625039D01*
X126889732Y-103625045D01*
X126776845Y-103737932D01*
X126776839Y-103737940D01*
X126688144Y-103870681D01*
X126688142Y-103870685D01*
X126627048Y-104018181D01*
X126627045Y-104018193D01*
X126595900Y-104174768D01*
X126595900Y-104334431D01*
X126607749Y-104394000D01*
X126492000Y-104394000D01*
X126492000Y-108712000D01*
X131318000Y-108712000D01*
X131318000Y-104394000D01*
X131051717Y-104394000D01*
X131120020Y-104325697D01*
X131150886Y-104303163D01*
X131565858Y-104089307D01*
X131574916Y-104085556D01*
X131580910Y-104081550D01*
X131583182Y-104080380D01*
X131607517Y-104066980D01*
X131608626Y-104066329D01*
X131675642Y-104019303D01*
X131675643Y-104019301D01*
X131677977Y-104017664D01*
X131687469Y-104010349D01*
X131707664Y-103996857D01*
X131820557Y-103883964D01*
X131909256Y-103751216D01*
X131914759Y-103737932D01*
X131970351Y-103603718D01*
X131970353Y-103603714D01*
X132001500Y-103447127D01*
X132001500Y-103287473D01*
X131970353Y-103130886D01*
X131914899Y-102997007D01*
X131909257Y-102983385D01*
X131909255Y-102983381D01*
X131817173Y-102845570D01*
X131819206Y-102844211D01*
X131796102Y-102789800D01*
X131807898Y-102720933D01*
X131855054Y-102669376D01*
X131862975Y-102664969D01*
X131970347Y-102610261D01*
X132135894Y-102489982D01*
X132135895Y-102489982D01*
X132280582Y-102345295D01*
X132280582Y-102345294D01*
X132400859Y-102179749D01*
X132493755Y-101997429D01*
X132556990Y-101802813D01*
X132565609Y-101748400D01*
X131604686Y-101748400D01*
X131609080Y-101744006D01*
X131661741Y-101652794D01*
X131689000Y-101551061D01*
X131689000Y-101445739D01*
X131661741Y-101344006D01*
X131609080Y-101252794D01*
X131604686Y-101248400D01*
X132565609Y-101248400D01*
X132556990Y-101193986D01*
X132493755Y-100999370D01*
X132400859Y-100817050D01*
X132313772Y-100697186D01*
X132290292Y-100631380D01*
X132306117Y-100563326D01*
X132356223Y-100514631D01*
X132414090Y-100500300D01*
X139354900Y-100500300D01*
X139421939Y-100519985D01*
X139467694Y-100572789D01*
X139478900Y-100624300D01*
X139478900Y-119365100D01*
X139459215Y-119432139D01*
X139406411Y-119477894D01*
X139354900Y-119489100D01*
X120639500Y-119489100D01*
X120572461Y-119469415D01*
X120526706Y-119416611D01*
X120515500Y-119365100D01*
X120515500Y-117004379D01*
X124310000Y-117004379D01*
X124310000Y-117157800D01*
X125060000Y-117157800D01*
X125060000Y-117657800D01*
X124310000Y-117657800D01*
X124310000Y-117811220D01*
X124350348Y-118014066D01*
X124350350Y-118014074D01*
X124429500Y-118205158D01*
X124429505Y-118205168D01*
X124544410Y-118377135D01*
X124544413Y-118377139D01*
X124690660Y-118523386D01*
X124690664Y-118523389D01*
X124862631Y-118638294D01*
X124862641Y-118638299D01*
X125053723Y-118717448D01*
X125053725Y-118717449D01*
X125110000Y-118728642D01*
X125110000Y-117874788D01*
X125119940Y-117892005D01*
X125175795Y-117947860D01*
X125244204Y-117987356D01*
X125320504Y-118007800D01*
X125399496Y-118007800D01*
X125475796Y-117987356D01*
X125544205Y-117947860D01*
X125600060Y-117892005D01*
X125610000Y-117874788D01*
X125610000Y-118728642D01*
X125666274Y-118717449D01*
X125666276Y-118717448D01*
X125857358Y-118638299D01*
X125857368Y-118638294D01*
X126029335Y-118523389D01*
X126029339Y-118523386D01*
X126175586Y-118377139D01*
X126175589Y-118377135D01*
X126290494Y-118205168D01*
X126290499Y-118205158D01*
X126369649Y-118014074D01*
X126369651Y-118014066D01*
X126409999Y-117811220D01*
X126410000Y-117811217D01*
X126410000Y-117657800D01*
X125660000Y-117657800D01*
X125660000Y-117157800D01*
X126410000Y-117157800D01*
X126410000Y-117004383D01*
X126409999Y-117004379D01*
X132950000Y-117004379D01*
X132950000Y-117157800D01*
X133700000Y-117157800D01*
X133700000Y-117657800D01*
X132950000Y-117657800D01*
X132950000Y-117811220D01*
X132990348Y-118014066D01*
X132990350Y-118014074D01*
X133069500Y-118205158D01*
X133069505Y-118205168D01*
X133184410Y-118377135D01*
X133184413Y-118377139D01*
X133330660Y-118523386D01*
X133330664Y-118523389D01*
X133502631Y-118638294D01*
X133502641Y-118638299D01*
X133693723Y-118717448D01*
X133693725Y-118717449D01*
X133750000Y-118728642D01*
X133750000Y-117874788D01*
X133759940Y-117892005D01*
X133815795Y-117947860D01*
X133884204Y-117987356D01*
X133960504Y-118007800D01*
X134039496Y-118007800D01*
X134115796Y-117987356D01*
X134184205Y-117947860D01*
X134240060Y-117892005D01*
X134250000Y-117874788D01*
X134250000Y-118728642D01*
X134306274Y-118717449D01*
X134306276Y-118717448D01*
X134497358Y-118638299D01*
X134497368Y-118638294D01*
X134669335Y-118523389D01*
X134669339Y-118523386D01*
X134815586Y-118377139D01*
X134815589Y-118377135D01*
X134930494Y-118205168D01*
X134930499Y-118205158D01*
X135009649Y-118014074D01*
X135009651Y-118014066D01*
X135049999Y-117811220D01*
X135050000Y-117811217D01*
X135050000Y-117657800D01*
X134300000Y-117657800D01*
X134300000Y-117157800D01*
X135050000Y-117157800D01*
X135050000Y-117004383D01*
X135049999Y-117004379D01*
X135009651Y-116801533D01*
X135009649Y-116801525D01*
X134930499Y-116610441D01*
X134930494Y-116610431D01*
X134815589Y-116438464D01*
X134815586Y-116438460D01*
X134669339Y-116292213D01*
X134669335Y-116292210D01*
X134497368Y-116177305D01*
X134497358Y-116177300D01*
X134306272Y-116098149D01*
X134306267Y-116098147D01*
X134250000Y-116086955D01*
X134250000Y-116940811D01*
X134240060Y-116923595D01*
X134184205Y-116867740D01*
X134115796Y-116828244D01*
X134039496Y-116807800D01*
X133960504Y-116807800D01*
X133884204Y-116828244D01*
X133815795Y-116867740D01*
X133759940Y-116923595D01*
X133750000Y-116940811D01*
X133750000Y-116086956D01*
X133749999Y-116086955D01*
X133693732Y-116098147D01*
X133693727Y-116098149D01*
X133502641Y-116177300D01*
X133502631Y-116177305D01*
X133330664Y-116292210D01*
X133330660Y-116292213D01*
X133184413Y-116438460D01*
X133184410Y-116438464D01*
X133069505Y-116610431D01*
X133069500Y-116610441D01*
X132990350Y-116801525D01*
X132990348Y-116801533D01*
X132950000Y-117004379D01*
X126409999Y-117004379D01*
X126369651Y-116801533D01*
X126369649Y-116801525D01*
X126290499Y-116610441D01*
X126290494Y-116610431D01*
X126175589Y-116438464D01*
X126175586Y-116438460D01*
X126029339Y-116292213D01*
X126029335Y-116292210D01*
X125857368Y-116177305D01*
X125857358Y-116177300D01*
X125666272Y-116098149D01*
X125666267Y-116098147D01*
X125610000Y-116086955D01*
X125610000Y-116940811D01*
X125600060Y-116923595D01*
X125544205Y-116867740D01*
X125475796Y-116828244D01*
X125399496Y-116807800D01*
X125320504Y-116807800D01*
X125244204Y-116828244D01*
X125175795Y-116867740D01*
X125119940Y-116923595D01*
X125110000Y-116940811D01*
X125110000Y-116086956D01*
X125109999Y-116086955D01*
X125053732Y-116098147D01*
X125053727Y-116098149D01*
X124862641Y-116177300D01*
X124862631Y-116177305D01*
X124690664Y-116292210D01*
X124690660Y-116292213D01*
X124544413Y-116438460D01*
X124544410Y-116438464D01*
X124429505Y-116610431D01*
X124429500Y-116610441D01*
X124350350Y-116801525D01*
X124350348Y-116801533D01*
X124310000Y-117004379D01*
X120515500Y-117004379D01*
X120515500Y-113204379D01*
X124310000Y-113204379D01*
X124310000Y-113357800D01*
X125060000Y-113357800D01*
X125060000Y-113857800D01*
X124310000Y-113857800D01*
X124310000Y-114011220D01*
X124350348Y-114214066D01*
X124350350Y-114214074D01*
X124429500Y-114405158D01*
X124429505Y-114405168D01*
X124544410Y-114577135D01*
X124544413Y-114577139D01*
X124690660Y-114723386D01*
X124690664Y-114723389D01*
X124862631Y-114838294D01*
X124862641Y-114838299D01*
X125053723Y-114917448D01*
X125053725Y-114917449D01*
X125110000Y-114928642D01*
X125110000Y-114074788D01*
X125119940Y-114092005D01*
X125175795Y-114147860D01*
X125244204Y-114187356D01*
X125320504Y-114207800D01*
X125399496Y-114207800D01*
X125475796Y-114187356D01*
X125544205Y-114147860D01*
X125600060Y-114092005D01*
X125610000Y-114074788D01*
X125610000Y-114928642D01*
X125666274Y-114917449D01*
X125666276Y-114917448D01*
X125857358Y-114838299D01*
X125857368Y-114838294D01*
X126029335Y-114723389D01*
X126029339Y-114723386D01*
X126175586Y-114577139D01*
X126175589Y-114577135D01*
X126290494Y-114405168D01*
X126290499Y-114405158D01*
X126369649Y-114214074D01*
X126369651Y-114214066D01*
X126409999Y-114011220D01*
X126410000Y-114011217D01*
X126410000Y-113857800D01*
X125660000Y-113857800D01*
X125660000Y-113357800D01*
X126410000Y-113357800D01*
X126410000Y-113204383D01*
X126409999Y-113204379D01*
X132950000Y-113204379D01*
X132950000Y-113357800D01*
X133700000Y-113357800D01*
X133700000Y-113857800D01*
X132950000Y-113857800D01*
X132950000Y-114011220D01*
X132990348Y-114214066D01*
X132990350Y-114214074D01*
X133069500Y-114405158D01*
X133069505Y-114405168D01*
X133184410Y-114577135D01*
X133184413Y-114577139D01*
X133330660Y-114723386D01*
X133330664Y-114723389D01*
X133502631Y-114838294D01*
X133502641Y-114838299D01*
X133693723Y-114917448D01*
X133693725Y-114917449D01*
X133750000Y-114928642D01*
X133750000Y-114074788D01*
X133759940Y-114092005D01*
X133815795Y-114147860D01*
X133884204Y-114187356D01*
X133960504Y-114207800D01*
X134039496Y-114207800D01*
X134115796Y-114187356D01*
X134184205Y-114147860D01*
X134240060Y-114092005D01*
X134250000Y-114074788D01*
X134250000Y-114928642D01*
X134306274Y-114917449D01*
X134306276Y-114917448D01*
X134497358Y-114838299D01*
X134497368Y-114838294D01*
X134669335Y-114723389D01*
X134669339Y-114723386D01*
X134815586Y-114577139D01*
X134815589Y-114577135D01*
X134930494Y-114405168D01*
X134930499Y-114405158D01*
X135009649Y-114214074D01*
X135009651Y-114214066D01*
X135049999Y-114011220D01*
X135050000Y-114011217D01*
X135050000Y-113857800D01*
X134300000Y-113857800D01*
X134300000Y-113357800D01*
X135050000Y-113357800D01*
X135050000Y-113204383D01*
X135049999Y-113204379D01*
X135009651Y-113001533D01*
X135009649Y-113001525D01*
X134930499Y-112810441D01*
X134930494Y-112810431D01*
X134815589Y-112638464D01*
X134815586Y-112638460D01*
X134669339Y-112492213D01*
X134669335Y-112492210D01*
X134497368Y-112377305D01*
X134497358Y-112377300D01*
X134306272Y-112298149D01*
X134306267Y-112298147D01*
X134250000Y-112286955D01*
X134250000Y-113140811D01*
X134240060Y-113123595D01*
X134184205Y-113067740D01*
X134115796Y-113028244D01*
X134039496Y-113007800D01*
X133960504Y-113007800D01*
X133884204Y-113028244D01*
X133815795Y-113067740D01*
X133759940Y-113123595D01*
X133750000Y-113140811D01*
X133750000Y-112286956D01*
X133749999Y-112286955D01*
X133693732Y-112298147D01*
X133693727Y-112298149D01*
X133502641Y-112377300D01*
X133502631Y-112377305D01*
X133330664Y-112492210D01*
X133330660Y-112492213D01*
X133184413Y-112638460D01*
X133184410Y-112638464D01*
X133069505Y-112810431D01*
X133069500Y-112810441D01*
X132990350Y-113001525D01*
X132990348Y-113001533D01*
X132950000Y-113204379D01*
X126409999Y-113204379D01*
X126369651Y-113001533D01*
X126369649Y-113001525D01*
X126290499Y-112810441D01*
X126290494Y-112810431D01*
X126175589Y-112638464D01*
X126175586Y-112638460D01*
X126029339Y-112492213D01*
X126029335Y-112492210D01*
X125857368Y-112377305D01*
X125857358Y-112377300D01*
X125666272Y-112298149D01*
X125666267Y-112298147D01*
X125610000Y-112286955D01*
X125610000Y-113140811D01*
X125600060Y-113123595D01*
X125544205Y-113067740D01*
X125475796Y-113028244D01*
X125399496Y-113007800D01*
X125320504Y-113007800D01*
X125244204Y-113028244D01*
X125175795Y-113067740D01*
X125119940Y-113123595D01*
X125110000Y-113140811D01*
X125110000Y-112286956D01*
X125109999Y-112286955D01*
X125053732Y-112298147D01*
X125053727Y-112298149D01*
X124862641Y-112377300D01*
X124862631Y-112377305D01*
X124690664Y-112492210D01*
X124690660Y-112492213D01*
X124544413Y-112638460D01*
X124544410Y-112638464D01*
X124429505Y-112810431D01*
X124429500Y-112810441D01*
X124350350Y-113001525D01*
X124350348Y-113001533D01*
X124310000Y-113204379D01*
X120515500Y-113204379D01*
X120515500Y-104358189D01*
X121916100Y-104358189D01*
X121916100Y-104531411D01*
X121943198Y-104702501D01*
X121996727Y-104867245D01*
X122075368Y-105021588D01*
X122177186Y-105161728D01*
X122299672Y-105284214D01*
X122439812Y-105386032D01*
X122594155Y-105464673D01*
X122758899Y-105518202D01*
X122929989Y-105545300D01*
X122929990Y-105545300D01*
X123653210Y-105545300D01*
X123653211Y-105545300D01*
X123824301Y-105518202D01*
X123989045Y-105464673D01*
X124143388Y-105386032D01*
X124283528Y-105284214D01*
X124406014Y-105161728D01*
X124507832Y-105021588D01*
X124586473Y-104867245D01*
X124640002Y-104702501D01*
X124667100Y-104531411D01*
X124667100Y-104358189D01*
X124640002Y-104187099D01*
X124586473Y-104022355D01*
X124507832Y-103868012D01*
X124406014Y-103727872D01*
X124298108Y-103619966D01*
X124264623Y-103558643D01*
X124269607Y-103488951D01*
X124311479Y-103433018D01*
X124320694Y-103426745D01*
X124384945Y-103387115D01*
X124508915Y-103263145D01*
X124600956Y-103113924D01*
X124600958Y-103113919D01*
X124656105Y-102947497D01*
X124656106Y-102947490D01*
X124666599Y-102844786D01*
X124666600Y-102844773D01*
X124666600Y-102694800D01*
X123571930Y-102694800D01*
X123591675Y-102675055D01*
X123641044Y-102589545D01*
X123666600Y-102494170D01*
X123666600Y-102395430D01*
X123641044Y-102300055D01*
X123591675Y-102214545D01*
X123571930Y-102194800D01*
X124666599Y-102194800D01*
X124666599Y-102044828D01*
X124666598Y-102044813D01*
X124656105Y-101942102D01*
X124600958Y-101775680D01*
X124600956Y-101775675D01*
X124508915Y-101626454D01*
X124384945Y-101502484D01*
X124235724Y-101410443D01*
X124235719Y-101410441D01*
X124069297Y-101355294D01*
X124069290Y-101355293D01*
X123966586Y-101344800D01*
X123541600Y-101344800D01*
X123541600Y-102164470D01*
X123521855Y-102144725D01*
X123436345Y-102095356D01*
X123340970Y-102069800D01*
X123242230Y-102069800D01*
X123146855Y-102095356D01*
X123061345Y-102144725D01*
X123041600Y-102164470D01*
X123041600Y-101344800D01*
X122616628Y-101344800D01*
X122616612Y-101344801D01*
X122513902Y-101355294D01*
X122347480Y-101410441D01*
X122347475Y-101410443D01*
X122198254Y-101502484D01*
X122074284Y-101626454D01*
X121982243Y-101775675D01*
X121982241Y-101775680D01*
X121927094Y-101942102D01*
X121927093Y-101942109D01*
X121916600Y-102044813D01*
X121916600Y-102194800D01*
X123011270Y-102194800D01*
X122991525Y-102214545D01*
X122942156Y-102300055D01*
X122916600Y-102395430D01*
X122916600Y-102494170D01*
X122942156Y-102589545D01*
X122991525Y-102675055D01*
X123011270Y-102694800D01*
X121916601Y-102694800D01*
X121916601Y-102844786D01*
X121927094Y-102947497D01*
X121982241Y-103113919D01*
X121982243Y-103113924D01*
X122074284Y-103263145D01*
X122198256Y-103387117D01*
X122262506Y-103426746D01*
X122309231Y-103478693D01*
X122320454Y-103547656D01*
X122292611Y-103611738D01*
X122285092Y-103619966D01*
X122177185Y-103727873D01*
X122075368Y-103868011D01*
X121996728Y-104022352D01*
X121943197Y-104187102D01*
X121919863Y-104334431D01*
X121916100Y-104358189D01*
X120515500Y-104358189D01*
X120515500Y-100624300D01*
X120535185Y-100557261D01*
X120587989Y-100511506D01*
X120639500Y-100500300D01*
X126426108Y-100500300D01*
X127623291Y-100500300D01*
X127690330Y-100519985D01*
G37*
%TD.AperFunction*%
%TD*%
%TA.AperFunction,Conductor*%
%TO.N,VCC*%
G36*
X127479315Y-103954534D02*
G01*
X128012308Y-104124998D01*
X128019143Y-104130781D01*
X128020443Y-104136141D01*
X128020443Y-104373058D01*
X128017016Y-104381331D01*
X128012307Y-104384202D01*
X127479320Y-104554663D01*
X127470396Y-104553919D01*
X127464612Y-104547083D01*
X127464291Y-104545851D01*
X127405868Y-104256914D01*
X127405868Y-104252285D01*
X127464289Y-103963358D01*
X127469287Y-103955931D01*
X127478075Y-103954212D01*
X127479315Y-103954534D01*
G37*
%TD.AperFunction*%
%TD*%
%TA.AperFunction,Conductor*%
%TO.N,VCC*%
G36*
X130943019Y-103201645D02*
G01*
X130944128Y-103202296D01*
X131189736Y-103365285D01*
X131193015Y-103368564D01*
X131356003Y-103614171D01*
X131357722Y-103622959D01*
X131352723Y-103630389D01*
X131351614Y-103631040D01*
X130854200Y-103887383D01*
X130845276Y-103888127D01*
X130840567Y-103885256D01*
X130673043Y-103717732D01*
X130669616Y-103709459D01*
X130670916Y-103704099D01*
X130717261Y-103614171D01*
X130927260Y-103206683D01*
X130934095Y-103200901D01*
X130943019Y-103201645D01*
G37*
%TD.AperFunction*%
%TD*%
M02*
