%TF.GenerationSoftware,KiCad,Pcbnew,9.0.0*%
%TF.CreationDate,2025-11-26T21:42:54+01:00*%
%TF.ProjectId,Battery power module,42617474-6572-4792-9070-6f776572206d,rev?*%
%TF.SameCoordinates,Original*%
%TF.FileFunction,Legend,Top*%
%TF.FilePolarity,Positive*%
%FSLAX46Y46*%
G04 Gerber Fmt 4.6, Leading zero omitted, Abs format (unit mm)*
G04 Created by KiCad (PCBNEW 9.0.0) date 2025-11-26 21:42:54*
%MOMM*%
%LPD*%
G01*
G04 APERTURE LIST*
%ADD10C,0.150000*%
%ADD11C,0.120000*%
G04 APERTURE END LIST*
D10*
X131708686Y-102553419D02*
X132280114Y-102553419D01*
X131994400Y-103553419D02*
X131994400Y-102553419D01*
X132613448Y-103553419D02*
X132613448Y-102553419D01*
X132613448Y-103029609D02*
X133184876Y-103029609D01*
X133184876Y-103553419D02*
X133184876Y-102553419D01*
X134184876Y-103553419D02*
X133613448Y-103553419D01*
X133899162Y-103553419D02*
X133899162Y-102553419D01*
X133899162Y-102553419D02*
X133803924Y-102696276D01*
X133803924Y-102696276D02*
X133708686Y-102791514D01*
X133708686Y-102791514D02*
X133613448Y-102839133D01*
X137945905Y-102054819D02*
X137945905Y-101054819D01*
X137945905Y-101054819D02*
X138184000Y-101054819D01*
X138184000Y-101054819D02*
X138326857Y-101102438D01*
X138326857Y-101102438D02*
X138422095Y-101197676D01*
X138422095Y-101197676D02*
X138469714Y-101292914D01*
X138469714Y-101292914D02*
X138517333Y-101483390D01*
X138517333Y-101483390D02*
X138517333Y-101626247D01*
X138517333Y-101626247D02*
X138469714Y-101816723D01*
X138469714Y-101816723D02*
X138422095Y-101911961D01*
X138422095Y-101911961D02*
X138326857Y-102007200D01*
X138326857Y-102007200D02*
X138184000Y-102054819D01*
X138184000Y-102054819D02*
X137945905Y-102054819D01*
X138898286Y-101150057D02*
X138945905Y-101102438D01*
X138945905Y-101102438D02*
X139041143Y-101054819D01*
X139041143Y-101054819D02*
X139279238Y-101054819D01*
X139279238Y-101054819D02*
X139374476Y-101102438D01*
X139374476Y-101102438D02*
X139422095Y-101150057D01*
X139422095Y-101150057D02*
X139469714Y-101245295D01*
X139469714Y-101245295D02*
X139469714Y-101340533D01*
X139469714Y-101340533D02*
X139422095Y-101483390D01*
X139422095Y-101483390D02*
X138850667Y-102054819D01*
X138850667Y-102054819D02*
X139469714Y-102054819D01*
X137945905Y-107896819D02*
X137945905Y-106896819D01*
X137945905Y-106896819D02*
X138184000Y-106896819D01*
X138184000Y-106896819D02*
X138326857Y-106944438D01*
X138326857Y-106944438D02*
X138422095Y-107039676D01*
X138422095Y-107039676D02*
X138469714Y-107134914D01*
X138469714Y-107134914D02*
X138517333Y-107325390D01*
X138517333Y-107325390D02*
X138517333Y-107468247D01*
X138517333Y-107468247D02*
X138469714Y-107658723D01*
X138469714Y-107658723D02*
X138422095Y-107753961D01*
X138422095Y-107753961D02*
X138326857Y-107849200D01*
X138326857Y-107849200D02*
X138184000Y-107896819D01*
X138184000Y-107896819D02*
X137945905Y-107896819D01*
X139469714Y-107896819D02*
X138898286Y-107896819D01*
X139184000Y-107896819D02*
X139184000Y-106896819D01*
X139184000Y-106896819D02*
X139088762Y-107039676D01*
X139088762Y-107039676D02*
X138993524Y-107134914D01*
X138993524Y-107134914D02*
X138898286Y-107182533D01*
X121943333Y-119326819D02*
X121610000Y-118850628D01*
X121371905Y-119326819D02*
X121371905Y-118326819D01*
X121371905Y-118326819D02*
X121752857Y-118326819D01*
X121752857Y-118326819D02*
X121848095Y-118374438D01*
X121848095Y-118374438D02*
X121895714Y-118422057D01*
X121895714Y-118422057D02*
X121943333Y-118517295D01*
X121943333Y-118517295D02*
X121943333Y-118660152D01*
X121943333Y-118660152D02*
X121895714Y-118755390D01*
X121895714Y-118755390D02*
X121848095Y-118803009D01*
X121848095Y-118803009D02*
X121752857Y-118850628D01*
X121752857Y-118850628D02*
X121371905Y-118850628D01*
X122800476Y-118326819D02*
X122610000Y-118326819D01*
X122610000Y-118326819D02*
X122514762Y-118374438D01*
X122514762Y-118374438D02*
X122467143Y-118422057D01*
X122467143Y-118422057D02*
X122371905Y-118564914D01*
X122371905Y-118564914D02*
X122324286Y-118755390D01*
X122324286Y-118755390D02*
X122324286Y-119136342D01*
X122324286Y-119136342D02*
X122371905Y-119231580D01*
X122371905Y-119231580D02*
X122419524Y-119279200D01*
X122419524Y-119279200D02*
X122514762Y-119326819D01*
X122514762Y-119326819D02*
X122705238Y-119326819D01*
X122705238Y-119326819D02*
X122800476Y-119279200D01*
X122800476Y-119279200D02*
X122848095Y-119231580D01*
X122848095Y-119231580D02*
X122895714Y-119136342D01*
X122895714Y-119136342D02*
X122895714Y-118898247D01*
X122895714Y-118898247D02*
X122848095Y-118803009D01*
X122848095Y-118803009D02*
X122800476Y-118755390D01*
X122800476Y-118755390D02*
X122705238Y-118707771D01*
X122705238Y-118707771D02*
X122514762Y-118707771D01*
X122514762Y-118707771D02*
X122419524Y-118755390D01*
X122419524Y-118755390D02*
X122371905Y-118803009D01*
X122371905Y-118803009D02*
X122324286Y-118898247D01*
X138517333Y-109928819D02*
X138184000Y-109452628D01*
X137945905Y-109928819D02*
X137945905Y-108928819D01*
X137945905Y-108928819D02*
X138326857Y-108928819D01*
X138326857Y-108928819D02*
X138422095Y-108976438D01*
X138422095Y-108976438D02*
X138469714Y-109024057D01*
X138469714Y-109024057D02*
X138517333Y-109119295D01*
X138517333Y-109119295D02*
X138517333Y-109262152D01*
X138517333Y-109262152D02*
X138469714Y-109357390D01*
X138469714Y-109357390D02*
X138422095Y-109405009D01*
X138422095Y-109405009D02*
X138326857Y-109452628D01*
X138326857Y-109452628D02*
X137945905Y-109452628D01*
X139374476Y-109262152D02*
X139374476Y-109928819D01*
X139136381Y-108881200D02*
X138898286Y-109595485D01*
X138898286Y-109595485D02*
X139517333Y-109595485D01*
X121944333Y-114500819D02*
X121611000Y-114024628D01*
X121372905Y-114500819D02*
X121372905Y-113500819D01*
X121372905Y-113500819D02*
X121753857Y-113500819D01*
X121753857Y-113500819D02*
X121849095Y-113548438D01*
X121849095Y-113548438D02*
X121896714Y-113596057D01*
X121896714Y-113596057D02*
X121944333Y-113691295D01*
X121944333Y-113691295D02*
X121944333Y-113834152D01*
X121944333Y-113834152D02*
X121896714Y-113929390D01*
X121896714Y-113929390D02*
X121849095Y-113977009D01*
X121849095Y-113977009D02*
X121753857Y-114024628D01*
X121753857Y-114024628D02*
X121372905Y-114024628D01*
X122849095Y-113500819D02*
X122372905Y-113500819D01*
X122372905Y-113500819D02*
X122325286Y-113977009D01*
X122325286Y-113977009D02*
X122372905Y-113929390D01*
X122372905Y-113929390D02*
X122468143Y-113881771D01*
X122468143Y-113881771D02*
X122706238Y-113881771D01*
X122706238Y-113881771D02*
X122801476Y-113929390D01*
X122801476Y-113929390D02*
X122849095Y-113977009D01*
X122849095Y-113977009D02*
X122896714Y-114072247D01*
X122896714Y-114072247D02*
X122896714Y-114310342D01*
X122896714Y-114310342D02*
X122849095Y-114405580D01*
X122849095Y-114405580D02*
X122801476Y-114453200D01*
X122801476Y-114453200D02*
X122706238Y-114500819D01*
X122706238Y-114500819D02*
X122468143Y-114500819D01*
X122468143Y-114500819D02*
X122372905Y-114453200D01*
X122372905Y-114453200D02*
X122325286Y-114405580D01*
X126223733Y-101756380D02*
X126176114Y-101804000D01*
X126176114Y-101804000D02*
X126033257Y-101851619D01*
X126033257Y-101851619D02*
X125938019Y-101851619D01*
X125938019Y-101851619D02*
X125795162Y-101804000D01*
X125795162Y-101804000D02*
X125699924Y-101708761D01*
X125699924Y-101708761D02*
X125652305Y-101613523D01*
X125652305Y-101613523D02*
X125604686Y-101423047D01*
X125604686Y-101423047D02*
X125604686Y-101280190D01*
X125604686Y-101280190D02*
X125652305Y-101089714D01*
X125652305Y-101089714D02*
X125699924Y-100994476D01*
X125699924Y-100994476D02*
X125795162Y-100899238D01*
X125795162Y-100899238D02*
X125938019Y-100851619D01*
X125938019Y-100851619D02*
X126033257Y-100851619D01*
X126033257Y-100851619D02*
X126176114Y-100899238D01*
X126176114Y-100899238D02*
X126223733Y-100946857D01*
X126604686Y-100946857D02*
X126652305Y-100899238D01*
X126652305Y-100899238D02*
X126747543Y-100851619D01*
X126747543Y-100851619D02*
X126985638Y-100851619D01*
X126985638Y-100851619D02*
X127080876Y-100899238D01*
X127080876Y-100899238D02*
X127128495Y-100946857D01*
X127128495Y-100946857D02*
X127176114Y-101042095D01*
X127176114Y-101042095D02*
X127176114Y-101137333D01*
X127176114Y-101137333D02*
X127128495Y-101280190D01*
X127128495Y-101280190D02*
X126557067Y-101851619D01*
X126557067Y-101851619D02*
X127176114Y-101851619D01*
X138517333Y-104086819D02*
X138184000Y-103610628D01*
X137945905Y-104086819D02*
X137945905Y-103086819D01*
X137945905Y-103086819D02*
X138326857Y-103086819D01*
X138326857Y-103086819D02*
X138422095Y-103134438D01*
X138422095Y-103134438D02*
X138469714Y-103182057D01*
X138469714Y-103182057D02*
X138517333Y-103277295D01*
X138517333Y-103277295D02*
X138517333Y-103420152D01*
X138517333Y-103420152D02*
X138469714Y-103515390D01*
X138469714Y-103515390D02*
X138422095Y-103563009D01*
X138422095Y-103563009D02*
X138326857Y-103610628D01*
X138326857Y-103610628D02*
X137945905Y-103610628D01*
X138898286Y-103182057D02*
X138945905Y-103134438D01*
X138945905Y-103134438D02*
X139041143Y-103086819D01*
X139041143Y-103086819D02*
X139279238Y-103086819D01*
X139279238Y-103086819D02*
X139374476Y-103134438D01*
X139374476Y-103134438D02*
X139422095Y-103182057D01*
X139422095Y-103182057D02*
X139469714Y-103277295D01*
X139469714Y-103277295D02*
X139469714Y-103372533D01*
X139469714Y-103372533D02*
X139422095Y-103515390D01*
X139422095Y-103515390D02*
X138850667Y-104086819D01*
X138850667Y-104086819D02*
X139469714Y-104086819D01*
X138517333Y-105864819D02*
X138184000Y-105388628D01*
X137945905Y-105864819D02*
X137945905Y-104864819D01*
X137945905Y-104864819D02*
X138326857Y-104864819D01*
X138326857Y-104864819D02*
X138422095Y-104912438D01*
X138422095Y-104912438D02*
X138469714Y-104960057D01*
X138469714Y-104960057D02*
X138517333Y-105055295D01*
X138517333Y-105055295D02*
X138517333Y-105198152D01*
X138517333Y-105198152D02*
X138469714Y-105293390D01*
X138469714Y-105293390D02*
X138422095Y-105341009D01*
X138422095Y-105341009D02*
X138326857Y-105388628D01*
X138326857Y-105388628D02*
X137945905Y-105388628D01*
X139469714Y-105864819D02*
X138898286Y-105864819D01*
X139184000Y-105864819D02*
X139184000Y-104864819D01*
X139184000Y-104864819D02*
X139088762Y-105007676D01*
X139088762Y-105007676D02*
X138993524Y-105102914D01*
X138993524Y-105102914D02*
X138898286Y-105150533D01*
X124750533Y-111611580D02*
X124702914Y-111659200D01*
X124702914Y-111659200D02*
X124560057Y-111706819D01*
X124560057Y-111706819D02*
X124464819Y-111706819D01*
X124464819Y-111706819D02*
X124321962Y-111659200D01*
X124321962Y-111659200D02*
X124226724Y-111563961D01*
X124226724Y-111563961D02*
X124179105Y-111468723D01*
X124179105Y-111468723D02*
X124131486Y-111278247D01*
X124131486Y-111278247D02*
X124131486Y-111135390D01*
X124131486Y-111135390D02*
X124179105Y-110944914D01*
X124179105Y-110944914D02*
X124226724Y-110849676D01*
X124226724Y-110849676D02*
X124321962Y-110754438D01*
X124321962Y-110754438D02*
X124464819Y-110706819D01*
X124464819Y-110706819D02*
X124560057Y-110706819D01*
X124560057Y-110706819D02*
X124702914Y-110754438D01*
X124702914Y-110754438D02*
X124750533Y-110802057D01*
X125702914Y-111706819D02*
X125131486Y-111706819D01*
X125417200Y-111706819D02*
X125417200Y-110706819D01*
X125417200Y-110706819D02*
X125321962Y-110849676D01*
X125321962Y-110849676D02*
X125226724Y-110944914D01*
X125226724Y-110944914D02*
X125131486Y-110992533D01*
X138517333Y-111681419D02*
X138184000Y-111205228D01*
X137945905Y-111681419D02*
X137945905Y-110681419D01*
X137945905Y-110681419D02*
X138326857Y-110681419D01*
X138326857Y-110681419D02*
X138422095Y-110729038D01*
X138422095Y-110729038D02*
X138469714Y-110776657D01*
X138469714Y-110776657D02*
X138517333Y-110871895D01*
X138517333Y-110871895D02*
X138517333Y-111014752D01*
X138517333Y-111014752D02*
X138469714Y-111109990D01*
X138469714Y-111109990D02*
X138422095Y-111157609D01*
X138422095Y-111157609D02*
X138326857Y-111205228D01*
X138326857Y-111205228D02*
X137945905Y-111205228D01*
X138850667Y-110681419D02*
X139469714Y-110681419D01*
X139469714Y-110681419D02*
X139136381Y-111062371D01*
X139136381Y-111062371D02*
X139279238Y-111062371D01*
X139279238Y-111062371D02*
X139374476Y-111109990D01*
X139374476Y-111109990D02*
X139422095Y-111157609D01*
X139422095Y-111157609D02*
X139469714Y-111252847D01*
X139469714Y-111252847D02*
X139469714Y-111490942D01*
X139469714Y-111490942D02*
X139422095Y-111586180D01*
X139422095Y-111586180D02*
X139374476Y-111633800D01*
X139374476Y-111633800D02*
X139279238Y-111681419D01*
X139279238Y-111681419D02*
X138993524Y-111681419D01*
X138993524Y-111681419D02*
X138898286Y-111633800D01*
X138898286Y-111633800D02*
X138850667Y-111586180D01*
X125730095Y-106896819D02*
X125730095Y-107706342D01*
X125730095Y-107706342D02*
X125777714Y-107801580D01*
X125777714Y-107801580D02*
X125825333Y-107849200D01*
X125825333Y-107849200D02*
X125920571Y-107896819D01*
X125920571Y-107896819D02*
X126111047Y-107896819D01*
X126111047Y-107896819D02*
X126206285Y-107849200D01*
X126206285Y-107849200D02*
X126253904Y-107801580D01*
X126253904Y-107801580D02*
X126301523Y-107706342D01*
X126301523Y-107706342D02*
X126301523Y-106896819D01*
X127301523Y-107896819D02*
X126730095Y-107896819D01*
X127015809Y-107896819D02*
X127015809Y-106896819D01*
X127015809Y-106896819D02*
X126920571Y-107039676D01*
X126920571Y-107039676D02*
X126825333Y-107134914D01*
X126825333Y-107134914D02*
X126730095Y-107182533D01*
D11*
%TO.C,TH1*%
X130119000Y-101498400D02*
X130189000Y-101498400D01*
X130119000Y-101498400D02*
G75*
G02*
X127379000Y-101498400I-1370000J0D01*
G01*
X127379000Y-101498400D02*
G75*
G02*
X130119000Y-101498400I1370000J0D01*
G01*
%TO.C,D2*%
X137144000Y-100640000D02*
X134459000Y-100640000D01*
X134459000Y-102560000D02*
X137144000Y-102560000D01*
X134459000Y-100640000D02*
X134459000Y-102560000D01*
%TO.C,D1*%
X137144000Y-106482000D02*
X134459000Y-106482000D01*
X134459000Y-108402000D02*
X137144000Y-108402000D01*
X134459000Y-106482000D02*
X134459000Y-108402000D01*
%TO.C,R6*%
X122347258Y-116825500D02*
X121872742Y-116825500D01*
X122347258Y-117870500D02*
X121872742Y-117870500D01*
%TO.C,R4*%
X136365758Y-108951500D02*
X135891242Y-108951500D01*
X136365758Y-109996500D02*
X135891242Y-109996500D01*
%TO.C,R5*%
X122348258Y-115047500D02*
X121873742Y-115047500D01*
X122348258Y-116092500D02*
X121873742Y-116092500D01*
%TO.C,C2*%
X126900400Y-103620180D02*
X126900400Y-103339020D01*
X125880400Y-103620180D02*
X125880400Y-103339020D01*
%TO.C,R2*%
X136381258Y-103109500D02*
X135906742Y-103109500D01*
X136381258Y-104154500D02*
X135906742Y-104154500D01*
%TO.C,R1*%
X136381258Y-104887500D02*
X135906742Y-104887500D01*
X136381258Y-105932500D02*
X135906742Y-105932500D01*
%TO.C,C1*%
X127508580Y-111711200D02*
X127227420Y-111711200D01*
X127508580Y-110691200D02*
X127227420Y-110691200D01*
%TO.C,R3*%
X136365758Y-111749100D02*
X135891242Y-111749100D01*
X136365758Y-110704100D02*
X135891242Y-110704100D01*
%TO.C,J1*%
X125010000Y-116357800D02*
X125010000Y-114657800D01*
X134350000Y-116357800D02*
X134350000Y-114657800D01*
%TO.C,U1*%
X127544000Y-106403000D02*
X127544000Y-107903000D01*
X127544000Y-106403000D02*
X127544000Y-104903000D01*
X130764000Y-106403000D02*
X130764000Y-107903000D01*
X130764000Y-106403000D02*
X130764000Y-104903000D01*
X127744000Y-108590500D02*
X127414000Y-108830500D01*
X127414000Y-108350500D01*
X127744000Y-108590500D01*
G36*
X127744000Y-108590500D02*
G01*
X127414000Y-108830500D01*
X127414000Y-108350500D01*
X127744000Y-108590500D01*
G37*
%TO.C,J2*%
X120381600Y-106504800D02*
X125101600Y-106504800D01*
X122491600Y-106504800D02*
X122491600Y-105894800D01*
X123791600Y-106504800D02*
X123791600Y-105894800D01*
X125101600Y-106504800D02*
X125101600Y-100384800D01*
X120991600Y-105894800D02*
X124491600Y-105894800D01*
X124491600Y-105894800D02*
X124491600Y-103944800D01*
X124491600Y-103944800D02*
X125101600Y-103944800D01*
X121491600Y-103544800D02*
X120991600Y-103544800D01*
X120991600Y-103444800D02*
X121491600Y-103444800D01*
X120991600Y-103344800D02*
X121491600Y-103344800D01*
X121491600Y-103344800D02*
X121491600Y-103544800D01*
X124491600Y-102944800D02*
X124491600Y-100994800D01*
X125101600Y-102944800D02*
X124491600Y-102944800D01*
X125101600Y-102144800D02*
X125301600Y-102144800D01*
X125201600Y-102144800D02*
X125201600Y-101844800D01*
X125301600Y-102144800D02*
X125301600Y-101844800D01*
X125301600Y-101844800D02*
X125101600Y-101844800D01*
X125401600Y-101334800D02*
X125401600Y-100084800D01*
X120991600Y-100994800D02*
X120991600Y-105894800D01*
X124491600Y-100994800D02*
X120991600Y-100994800D01*
X120381600Y-100384800D02*
X120381600Y-106504800D01*
X122491600Y-100384800D02*
X122491600Y-100994800D01*
X123791600Y-100384800D02*
X123791600Y-100994800D01*
X125101600Y-100384800D02*
X120381600Y-100384800D01*
X125401600Y-100084800D02*
X124151600Y-100084800D01*
%TD*%
M02*
