%TF.GenerationSoftware,KiCad,Pcbnew,9.0.0*%
%TF.CreationDate,2025-11-26T21:42:54+01:00*%
%TF.ProjectId,Battery power module,42617474-6572-4792-9070-6f776572206d,rev?*%
%TF.SameCoordinates,Original*%
%TF.FileFunction,Legend,Bot*%
%TF.FilePolarity,Positive*%
%FSLAX46Y46*%
G04 Gerber Fmt 4.6, Leading zero omitted, Abs format (unit mm)*
G04 Created by KiCad (PCBNEW 9.0.0) date 2025-11-26 21:42:54*
%MOMM*%
%LPD*%
G01*
G04 APERTURE LIST*
%ADD10C,0.125000*%
G04 APERTURE END LIST*
D10*
X137005565Y-100932864D02*
X137053184Y-101075721D01*
X137053184Y-101075721D02*
X137100803Y-101123340D01*
X137100803Y-101123340D02*
X137196041Y-101170959D01*
X137196041Y-101170959D02*
X137338898Y-101170959D01*
X137338898Y-101170959D02*
X137434136Y-101123340D01*
X137434136Y-101123340D02*
X137481756Y-101075721D01*
X137481756Y-101075721D02*
X137529375Y-100980483D01*
X137529375Y-100980483D02*
X137529375Y-100599531D01*
X137529375Y-100599531D02*
X136529375Y-100599531D01*
X136529375Y-100599531D02*
X136529375Y-100932864D01*
X136529375Y-100932864D02*
X136576994Y-101028102D01*
X136576994Y-101028102D02*
X136624613Y-101075721D01*
X136624613Y-101075721D02*
X136719851Y-101123340D01*
X136719851Y-101123340D02*
X136815089Y-101123340D01*
X136815089Y-101123340D02*
X136910327Y-101075721D01*
X136910327Y-101075721D02*
X136957946Y-101028102D01*
X136957946Y-101028102D02*
X137005565Y-100932864D01*
X137005565Y-100932864D02*
X137005565Y-100599531D01*
X137529375Y-102028102D02*
X137005565Y-102028102D01*
X137005565Y-102028102D02*
X136910327Y-101980483D01*
X136910327Y-101980483D02*
X136862708Y-101885245D01*
X136862708Y-101885245D02*
X136862708Y-101694769D01*
X136862708Y-101694769D02*
X136910327Y-101599531D01*
X137481756Y-102028102D02*
X137529375Y-101932864D01*
X137529375Y-101932864D02*
X137529375Y-101694769D01*
X137529375Y-101694769D02*
X137481756Y-101599531D01*
X137481756Y-101599531D02*
X137386517Y-101551912D01*
X137386517Y-101551912D02*
X137291279Y-101551912D01*
X137291279Y-101551912D02*
X137196041Y-101599531D01*
X137196041Y-101599531D02*
X137148422Y-101694769D01*
X137148422Y-101694769D02*
X137148422Y-101932864D01*
X137148422Y-101932864D02*
X137100803Y-102028102D01*
X136862708Y-102361436D02*
X136862708Y-102742388D01*
X136529375Y-102504293D02*
X137386517Y-102504293D01*
X137386517Y-102504293D02*
X137481756Y-102551912D01*
X137481756Y-102551912D02*
X137529375Y-102647150D01*
X137529375Y-102647150D02*
X137529375Y-102742388D01*
X136862708Y-102932865D02*
X136862708Y-103313817D01*
X136529375Y-103075722D02*
X137386517Y-103075722D01*
X137386517Y-103075722D02*
X137481756Y-103123341D01*
X137481756Y-103123341D02*
X137529375Y-103218579D01*
X137529375Y-103218579D02*
X137529375Y-103313817D01*
X137481756Y-104028103D02*
X137529375Y-103932865D01*
X137529375Y-103932865D02*
X137529375Y-103742389D01*
X137529375Y-103742389D02*
X137481756Y-103647151D01*
X137481756Y-103647151D02*
X137386517Y-103599532D01*
X137386517Y-103599532D02*
X137005565Y-103599532D01*
X137005565Y-103599532D02*
X136910327Y-103647151D01*
X136910327Y-103647151D02*
X136862708Y-103742389D01*
X136862708Y-103742389D02*
X136862708Y-103932865D01*
X136862708Y-103932865D02*
X136910327Y-104028103D01*
X136910327Y-104028103D02*
X137005565Y-104075722D01*
X137005565Y-104075722D02*
X137100803Y-104075722D01*
X137100803Y-104075722D02*
X137196041Y-103599532D01*
X137529375Y-104504294D02*
X136862708Y-104504294D01*
X137053184Y-104504294D02*
X136957946Y-104551913D01*
X136957946Y-104551913D02*
X136910327Y-104599532D01*
X136910327Y-104599532D02*
X136862708Y-104694770D01*
X136862708Y-104694770D02*
X136862708Y-104790008D01*
X136862708Y-105028104D02*
X137529375Y-105266199D01*
X136862708Y-105504294D02*
X137529375Y-105266199D01*
X137529375Y-105266199D02*
X137767470Y-105170961D01*
X137767470Y-105170961D02*
X137815089Y-105123342D01*
X137815089Y-105123342D02*
X137862708Y-105028104D01*
X136862708Y-106647152D02*
X137862708Y-106647152D01*
X136910327Y-106647152D02*
X136862708Y-106742390D01*
X136862708Y-106742390D02*
X136862708Y-106932866D01*
X136862708Y-106932866D02*
X136910327Y-107028104D01*
X136910327Y-107028104D02*
X136957946Y-107075723D01*
X136957946Y-107075723D02*
X137053184Y-107123342D01*
X137053184Y-107123342D02*
X137338898Y-107123342D01*
X137338898Y-107123342D02*
X137434136Y-107075723D01*
X137434136Y-107075723D02*
X137481756Y-107028104D01*
X137481756Y-107028104D02*
X137529375Y-106932866D01*
X137529375Y-106932866D02*
X137529375Y-106742390D01*
X137529375Y-106742390D02*
X137481756Y-106647152D01*
X137529375Y-107694771D02*
X137481756Y-107599533D01*
X137481756Y-107599533D02*
X137434136Y-107551914D01*
X137434136Y-107551914D02*
X137338898Y-107504295D01*
X137338898Y-107504295D02*
X137053184Y-107504295D01*
X137053184Y-107504295D02*
X136957946Y-107551914D01*
X136957946Y-107551914D02*
X136910327Y-107599533D01*
X136910327Y-107599533D02*
X136862708Y-107694771D01*
X136862708Y-107694771D02*
X136862708Y-107837628D01*
X136862708Y-107837628D02*
X136910327Y-107932866D01*
X136910327Y-107932866D02*
X136957946Y-107980485D01*
X136957946Y-107980485D02*
X137053184Y-108028104D01*
X137053184Y-108028104D02*
X137338898Y-108028104D01*
X137338898Y-108028104D02*
X137434136Y-107980485D01*
X137434136Y-107980485D02*
X137481756Y-107932866D01*
X137481756Y-107932866D02*
X137529375Y-107837628D01*
X137529375Y-107837628D02*
X137529375Y-107694771D01*
X136862708Y-108361438D02*
X137529375Y-108551914D01*
X137529375Y-108551914D02*
X137053184Y-108742390D01*
X137053184Y-108742390D02*
X137529375Y-108932866D01*
X137529375Y-108932866D02*
X136862708Y-109123342D01*
X137481756Y-109885247D02*
X137529375Y-109790009D01*
X137529375Y-109790009D02*
X137529375Y-109599533D01*
X137529375Y-109599533D02*
X137481756Y-109504295D01*
X137481756Y-109504295D02*
X137386517Y-109456676D01*
X137386517Y-109456676D02*
X137005565Y-109456676D01*
X137005565Y-109456676D02*
X136910327Y-109504295D01*
X136910327Y-109504295D02*
X136862708Y-109599533D01*
X136862708Y-109599533D02*
X136862708Y-109790009D01*
X136862708Y-109790009D02*
X136910327Y-109885247D01*
X136910327Y-109885247D02*
X137005565Y-109932866D01*
X137005565Y-109932866D02*
X137100803Y-109932866D01*
X137100803Y-109932866D02*
X137196041Y-109456676D01*
X137529375Y-110361438D02*
X136862708Y-110361438D01*
X137053184Y-110361438D02*
X136957946Y-110409057D01*
X136957946Y-110409057D02*
X136910327Y-110456676D01*
X136910327Y-110456676D02*
X136862708Y-110551914D01*
X136862708Y-110551914D02*
X136862708Y-110647152D01*
X137529375Y-111742391D02*
X136862708Y-111742391D01*
X136957946Y-111742391D02*
X136910327Y-111790010D01*
X136910327Y-111790010D02*
X136862708Y-111885248D01*
X136862708Y-111885248D02*
X136862708Y-112028105D01*
X136862708Y-112028105D02*
X136910327Y-112123343D01*
X136910327Y-112123343D02*
X137005565Y-112170962D01*
X137005565Y-112170962D02*
X137529375Y-112170962D01*
X137005565Y-112170962D02*
X136910327Y-112218581D01*
X136910327Y-112218581D02*
X136862708Y-112313819D01*
X136862708Y-112313819D02*
X136862708Y-112456676D01*
X136862708Y-112456676D02*
X136910327Y-112551915D01*
X136910327Y-112551915D02*
X137005565Y-112599534D01*
X137005565Y-112599534D02*
X137529375Y-112599534D01*
X137529375Y-113218581D02*
X137481756Y-113123343D01*
X137481756Y-113123343D02*
X137434136Y-113075724D01*
X137434136Y-113075724D02*
X137338898Y-113028105D01*
X137338898Y-113028105D02*
X137053184Y-113028105D01*
X137053184Y-113028105D02*
X136957946Y-113075724D01*
X136957946Y-113075724D02*
X136910327Y-113123343D01*
X136910327Y-113123343D02*
X136862708Y-113218581D01*
X136862708Y-113218581D02*
X136862708Y-113361438D01*
X136862708Y-113361438D02*
X136910327Y-113456676D01*
X136910327Y-113456676D02*
X136957946Y-113504295D01*
X136957946Y-113504295D02*
X137053184Y-113551914D01*
X137053184Y-113551914D02*
X137338898Y-113551914D01*
X137338898Y-113551914D02*
X137434136Y-113504295D01*
X137434136Y-113504295D02*
X137481756Y-113456676D01*
X137481756Y-113456676D02*
X137529375Y-113361438D01*
X137529375Y-113361438D02*
X137529375Y-113218581D01*
X137529375Y-114409057D02*
X136529375Y-114409057D01*
X137481756Y-114409057D02*
X137529375Y-114313819D01*
X137529375Y-114313819D02*
X137529375Y-114123343D01*
X137529375Y-114123343D02*
X137481756Y-114028105D01*
X137481756Y-114028105D02*
X137434136Y-113980486D01*
X137434136Y-113980486D02*
X137338898Y-113932867D01*
X137338898Y-113932867D02*
X137053184Y-113932867D01*
X137053184Y-113932867D02*
X136957946Y-113980486D01*
X136957946Y-113980486D02*
X136910327Y-114028105D01*
X136910327Y-114028105D02*
X136862708Y-114123343D01*
X136862708Y-114123343D02*
X136862708Y-114313819D01*
X136862708Y-114313819D02*
X136910327Y-114409057D01*
X136862708Y-115313819D02*
X137529375Y-115313819D01*
X136862708Y-114885248D02*
X137386517Y-114885248D01*
X137386517Y-114885248D02*
X137481756Y-114932867D01*
X137481756Y-114932867D02*
X137529375Y-115028105D01*
X137529375Y-115028105D02*
X137529375Y-115170962D01*
X137529375Y-115170962D02*
X137481756Y-115266200D01*
X137481756Y-115266200D02*
X137434136Y-115313819D01*
X137529375Y-115932867D02*
X137481756Y-115837629D01*
X137481756Y-115837629D02*
X137386517Y-115790010D01*
X137386517Y-115790010D02*
X136529375Y-115790010D01*
X137481756Y-116694772D02*
X137529375Y-116599534D01*
X137529375Y-116599534D02*
X137529375Y-116409058D01*
X137529375Y-116409058D02*
X137481756Y-116313820D01*
X137481756Y-116313820D02*
X137386517Y-116266201D01*
X137386517Y-116266201D02*
X137005565Y-116266201D01*
X137005565Y-116266201D02*
X136910327Y-116313820D01*
X136910327Y-116313820D02*
X136862708Y-116409058D01*
X136862708Y-116409058D02*
X136862708Y-116599534D01*
X136862708Y-116599534D02*
X136910327Y-116694772D01*
X136910327Y-116694772D02*
X137005565Y-116742391D01*
X137005565Y-116742391D02*
X137100803Y-116742391D01*
X137100803Y-116742391D02*
X137196041Y-116266201D01*
X139139319Y-100599531D02*
X138139319Y-100599531D01*
X138520271Y-100599531D02*
X138472652Y-100694769D01*
X138472652Y-100694769D02*
X138472652Y-100885245D01*
X138472652Y-100885245D02*
X138520271Y-100980483D01*
X138520271Y-100980483D02*
X138567890Y-101028102D01*
X138567890Y-101028102D02*
X138663128Y-101075721D01*
X138663128Y-101075721D02*
X138948842Y-101075721D01*
X138948842Y-101075721D02*
X139044080Y-101028102D01*
X139044080Y-101028102D02*
X139091700Y-100980483D01*
X139091700Y-100980483D02*
X139139319Y-100885245D01*
X139139319Y-100885245D02*
X139139319Y-100694769D01*
X139139319Y-100694769D02*
X139091700Y-100599531D01*
X138472652Y-101409055D02*
X139139319Y-101647150D01*
X138472652Y-101885245D02*
X139139319Y-101647150D01*
X139139319Y-101647150D02*
X139377414Y-101551912D01*
X139377414Y-101551912D02*
X139425033Y-101504293D01*
X139425033Y-101504293D02*
X139472652Y-101409055D01*
X139139319Y-103028103D02*
X138139319Y-103028103D01*
X138615509Y-103028103D02*
X138615509Y-103599531D01*
X139139319Y-103599531D02*
X138139319Y-103599531D01*
X138472652Y-104504293D02*
X139139319Y-104504293D01*
X138472652Y-104075722D02*
X138996461Y-104075722D01*
X138996461Y-104075722D02*
X139091700Y-104123341D01*
X139091700Y-104123341D02*
X139139319Y-104218579D01*
X139139319Y-104218579D02*
X139139319Y-104361436D01*
X139139319Y-104361436D02*
X139091700Y-104456674D01*
X139091700Y-104456674D02*
X139044080Y-104504293D01*
X139139319Y-104980484D02*
X138139319Y-104980484D01*
X138520271Y-104980484D02*
X138472652Y-105075722D01*
X138472652Y-105075722D02*
X138472652Y-105266198D01*
X138472652Y-105266198D02*
X138520271Y-105361436D01*
X138520271Y-105361436D02*
X138567890Y-105409055D01*
X138567890Y-105409055D02*
X138663128Y-105456674D01*
X138663128Y-105456674D02*
X138948842Y-105456674D01*
X138948842Y-105456674D02*
X139044080Y-105409055D01*
X139044080Y-105409055D02*
X139091700Y-105361436D01*
X139091700Y-105361436D02*
X139139319Y-105266198D01*
X139139319Y-105266198D02*
X139139319Y-105075722D01*
X139139319Y-105075722D02*
X139091700Y-104980484D01*
X139091700Y-106266198D02*
X139139319Y-106170960D01*
X139139319Y-106170960D02*
X139139319Y-105980484D01*
X139139319Y-105980484D02*
X139091700Y-105885246D01*
X139091700Y-105885246D02*
X138996461Y-105837627D01*
X138996461Y-105837627D02*
X138615509Y-105837627D01*
X138615509Y-105837627D02*
X138520271Y-105885246D01*
X138520271Y-105885246D02*
X138472652Y-105980484D01*
X138472652Y-105980484D02*
X138472652Y-106170960D01*
X138472652Y-106170960D02*
X138520271Y-106266198D01*
X138520271Y-106266198D02*
X138615509Y-106313817D01*
X138615509Y-106313817D02*
X138710747Y-106313817D01*
X138710747Y-106313817D02*
X138805985Y-105837627D01*
X139139319Y-106742389D02*
X138472652Y-106742389D01*
X138663128Y-106742389D02*
X138567890Y-106790008D01*
X138567890Y-106790008D02*
X138520271Y-106837627D01*
X138520271Y-106837627D02*
X138472652Y-106932865D01*
X138472652Y-106932865D02*
X138472652Y-107028103D01*
X138472652Y-107218580D02*
X138472652Y-107599532D01*
X138139319Y-107361437D02*
X138996461Y-107361437D01*
X138996461Y-107361437D02*
X139091700Y-107409056D01*
X139091700Y-107409056D02*
X139139319Y-107504294D01*
X139139319Y-107504294D02*
X139139319Y-107599532D01*
X138186938Y-109218580D02*
X138139319Y-109123342D01*
X138139319Y-109123342D02*
X138139319Y-108980485D01*
X138139319Y-108980485D02*
X138186938Y-108837628D01*
X138186938Y-108837628D02*
X138282176Y-108742390D01*
X138282176Y-108742390D02*
X138377414Y-108694771D01*
X138377414Y-108694771D02*
X138567890Y-108647152D01*
X138567890Y-108647152D02*
X138710747Y-108647152D01*
X138710747Y-108647152D02*
X138901223Y-108694771D01*
X138901223Y-108694771D02*
X138996461Y-108742390D01*
X138996461Y-108742390D02*
X139091700Y-108837628D01*
X139091700Y-108837628D02*
X139139319Y-108980485D01*
X139139319Y-108980485D02*
X139139319Y-109075723D01*
X139139319Y-109075723D02*
X139091700Y-109218580D01*
X139091700Y-109218580D02*
X139044080Y-109266199D01*
X139044080Y-109266199D02*
X138710747Y-109266199D01*
X138710747Y-109266199D02*
X138710747Y-109075723D01*
X138472652Y-109694771D02*
X139139319Y-109694771D01*
X138567890Y-109694771D02*
X138520271Y-109742390D01*
X138520271Y-109742390D02*
X138472652Y-109837628D01*
X138472652Y-109837628D02*
X138472652Y-109980485D01*
X138472652Y-109980485D02*
X138520271Y-110075723D01*
X138520271Y-110075723D02*
X138615509Y-110123342D01*
X138615509Y-110123342D02*
X139139319Y-110123342D01*
X138472652Y-110504295D02*
X139139319Y-110742390D01*
X138472652Y-110980485D02*
X139139319Y-110742390D01*
X139139319Y-110742390D02*
X139377414Y-110647152D01*
X139377414Y-110647152D02*
X139425033Y-110599533D01*
X139425033Y-110599533D02*
X139472652Y-110504295D01*
X138472652Y-111361438D02*
X139472652Y-111361438D01*
X138520271Y-111361438D02*
X138472652Y-111456676D01*
X138472652Y-111456676D02*
X138472652Y-111647152D01*
X138472652Y-111647152D02*
X138520271Y-111742390D01*
X138520271Y-111742390D02*
X138567890Y-111790009D01*
X138567890Y-111790009D02*
X138663128Y-111837628D01*
X138663128Y-111837628D02*
X138948842Y-111837628D01*
X138948842Y-111837628D02*
X139044080Y-111790009D01*
X139044080Y-111790009D02*
X139091700Y-111742390D01*
X139091700Y-111742390D02*
X139139319Y-111647152D01*
X139139319Y-111647152D02*
X139139319Y-111456676D01*
X139139319Y-111456676D02*
X139091700Y-111361438D01*
X138234557Y-112980486D02*
X138186938Y-113028105D01*
X138186938Y-113028105D02*
X138139319Y-113123343D01*
X138139319Y-113123343D02*
X138139319Y-113361438D01*
X138139319Y-113361438D02*
X138186938Y-113456676D01*
X138186938Y-113456676D02*
X138234557Y-113504295D01*
X138234557Y-113504295D02*
X138329795Y-113551914D01*
X138329795Y-113551914D02*
X138425033Y-113551914D01*
X138425033Y-113551914D02*
X138567890Y-113504295D01*
X138567890Y-113504295D02*
X139139319Y-112932867D01*
X139139319Y-112932867D02*
X139139319Y-113551914D01*
X138139319Y-114170962D02*
X138139319Y-114266200D01*
X138139319Y-114266200D02*
X138186938Y-114361438D01*
X138186938Y-114361438D02*
X138234557Y-114409057D01*
X138234557Y-114409057D02*
X138329795Y-114456676D01*
X138329795Y-114456676D02*
X138520271Y-114504295D01*
X138520271Y-114504295D02*
X138758366Y-114504295D01*
X138758366Y-114504295D02*
X138948842Y-114456676D01*
X138948842Y-114456676D02*
X139044080Y-114409057D01*
X139044080Y-114409057D02*
X139091700Y-114361438D01*
X139091700Y-114361438D02*
X139139319Y-114266200D01*
X139139319Y-114266200D02*
X139139319Y-114170962D01*
X139139319Y-114170962D02*
X139091700Y-114075724D01*
X139091700Y-114075724D02*
X139044080Y-114028105D01*
X139044080Y-114028105D02*
X138948842Y-113980486D01*
X138948842Y-113980486D02*
X138758366Y-113932867D01*
X138758366Y-113932867D02*
X138520271Y-113932867D01*
X138520271Y-113932867D02*
X138329795Y-113980486D01*
X138329795Y-113980486D02*
X138234557Y-114028105D01*
X138234557Y-114028105D02*
X138186938Y-114075724D01*
X138186938Y-114075724D02*
X138139319Y-114170962D01*
X138234557Y-114885248D02*
X138186938Y-114932867D01*
X138186938Y-114932867D02*
X138139319Y-115028105D01*
X138139319Y-115028105D02*
X138139319Y-115266200D01*
X138139319Y-115266200D02*
X138186938Y-115361438D01*
X138186938Y-115361438D02*
X138234557Y-115409057D01*
X138234557Y-115409057D02*
X138329795Y-115456676D01*
X138329795Y-115456676D02*
X138425033Y-115456676D01*
X138425033Y-115456676D02*
X138567890Y-115409057D01*
X138567890Y-115409057D02*
X139139319Y-114837629D01*
X139139319Y-114837629D02*
X139139319Y-115456676D01*
X138139319Y-116361438D02*
X138139319Y-115885248D01*
X138139319Y-115885248D02*
X138615509Y-115837629D01*
X138615509Y-115837629D02*
X138567890Y-115885248D01*
X138567890Y-115885248D02*
X138520271Y-115980486D01*
X138520271Y-115980486D02*
X138520271Y-116218581D01*
X138520271Y-116218581D02*
X138567890Y-116313819D01*
X138567890Y-116313819D02*
X138615509Y-116361438D01*
X138615509Y-116361438D02*
X138710747Y-116409057D01*
X138710747Y-116409057D02*
X138948842Y-116409057D01*
X138948842Y-116409057D02*
X139044080Y-116361438D01*
X139044080Y-116361438D02*
X139091700Y-116313819D01*
X139091700Y-116313819D02*
X139139319Y-116218581D01*
X139139319Y-116218581D02*
X139139319Y-115980486D01*
X139139319Y-115980486D02*
X139091700Y-115885248D01*
X139091700Y-115885248D02*
X139044080Y-115837629D01*
M02*
