%TF.GenerationSoftware,KiCad,Pcbnew,9.0.0*%
%TF.CreationDate,2025-11-29T18:06:43+01:00*%
%TF.ProjectId,Battery power module,42617474-6572-4792-9070-6f776572206d,rev?*%
%TF.SameCoordinates,Original*%
%TF.FileFunction,Legend,Top*%
%TF.FilePolarity,Positive*%
%FSLAX46Y46*%
G04 Gerber Fmt 4.6, Leading zero omitted, Abs format (unit mm)*
G04 Created by KiCad (PCBNEW 9.0.0) date 2025-11-29 18:06:43*
%MOMM*%
%LPD*%
G01*
G04 APERTURE LIST*
%ADD10C,0.100000*%
%ADD11C,0.150000*%
%ADD12C,0.120000*%
G04 APERTURE END LIST*
D10*
X121461884Y-101091466D02*
X122223789Y-101091466D01*
X121842836Y-101472419D02*
X121842836Y-100710514D01*
X121817866Y-96825715D02*
X121817866Y-96063811D01*
D11*
X125730095Y-102229819D02*
X125730095Y-103039342D01*
X125730095Y-103039342D02*
X125777714Y-103134580D01*
X125777714Y-103134580D02*
X125825333Y-103182200D01*
X125825333Y-103182200D02*
X125920571Y-103229819D01*
X125920571Y-103229819D02*
X126111047Y-103229819D01*
X126111047Y-103229819D02*
X126206285Y-103182200D01*
X126206285Y-103182200D02*
X126253904Y-103134580D01*
X126253904Y-103134580D02*
X126301523Y-103039342D01*
X126301523Y-103039342D02*
X126301523Y-102229819D01*
X127301523Y-103229819D02*
X126730095Y-103229819D01*
X127015809Y-103229819D02*
X127015809Y-102229819D01*
X127015809Y-102229819D02*
X126920571Y-102372676D01*
X126920571Y-102372676D02*
X126825333Y-102467914D01*
X126825333Y-102467914D02*
X126730095Y-102515533D01*
X137910605Y-105737819D02*
X137910605Y-104737819D01*
X137910605Y-104737819D02*
X138148700Y-104737819D01*
X138148700Y-104737819D02*
X138291557Y-104785438D01*
X138291557Y-104785438D02*
X138386795Y-104880676D01*
X138386795Y-104880676D02*
X138434414Y-104975914D01*
X138434414Y-104975914D02*
X138482033Y-105166390D01*
X138482033Y-105166390D02*
X138482033Y-105309247D01*
X138482033Y-105309247D02*
X138434414Y-105499723D01*
X138434414Y-105499723D02*
X138386795Y-105594961D01*
X138386795Y-105594961D02*
X138291557Y-105690200D01*
X138291557Y-105690200D02*
X138148700Y-105737819D01*
X138148700Y-105737819D02*
X137910605Y-105737819D01*
X139434414Y-105737819D02*
X138862986Y-105737819D01*
X139148700Y-105737819D02*
X139148700Y-104737819D01*
X139148700Y-104737819D02*
X139053462Y-104880676D01*
X139053462Y-104880676D02*
X138958224Y-104975914D01*
X138958224Y-104975914D02*
X138862986Y-105023533D01*
X131657886Y-97270219D02*
X132229314Y-97270219D01*
X131943600Y-98270219D02*
X131943600Y-97270219D01*
X132562648Y-98270219D02*
X132562648Y-97270219D01*
X132562648Y-97746409D02*
X133134076Y-97746409D01*
X133134076Y-98270219D02*
X133134076Y-97270219D01*
X134134076Y-98270219D02*
X133562648Y-98270219D01*
X133848362Y-98270219D02*
X133848362Y-97270219D01*
X133848362Y-97270219D02*
X133753124Y-97413076D01*
X133753124Y-97413076D02*
X133657886Y-97508314D01*
X133657886Y-97508314D02*
X133562648Y-97555933D01*
X121943333Y-119326819D02*
X121610000Y-118850628D01*
X121371905Y-119326819D02*
X121371905Y-118326819D01*
X121371905Y-118326819D02*
X121752857Y-118326819D01*
X121752857Y-118326819D02*
X121848095Y-118374438D01*
X121848095Y-118374438D02*
X121895714Y-118422057D01*
X121895714Y-118422057D02*
X121943333Y-118517295D01*
X121943333Y-118517295D02*
X121943333Y-118660152D01*
X121943333Y-118660152D02*
X121895714Y-118755390D01*
X121895714Y-118755390D02*
X121848095Y-118803009D01*
X121848095Y-118803009D02*
X121752857Y-118850628D01*
X121752857Y-118850628D02*
X121371905Y-118850628D01*
X122800476Y-118326819D02*
X122610000Y-118326819D01*
X122610000Y-118326819D02*
X122514762Y-118374438D01*
X122514762Y-118374438D02*
X122467143Y-118422057D01*
X122467143Y-118422057D02*
X122371905Y-118564914D01*
X122371905Y-118564914D02*
X122324286Y-118755390D01*
X122324286Y-118755390D02*
X122324286Y-119136342D01*
X122324286Y-119136342D02*
X122371905Y-119231580D01*
X122371905Y-119231580D02*
X122419524Y-119279200D01*
X122419524Y-119279200D02*
X122514762Y-119326819D01*
X122514762Y-119326819D02*
X122705238Y-119326819D01*
X122705238Y-119326819D02*
X122800476Y-119279200D01*
X122800476Y-119279200D02*
X122848095Y-119231580D01*
X122848095Y-119231580D02*
X122895714Y-119136342D01*
X122895714Y-119136342D02*
X122895714Y-118898247D01*
X122895714Y-118898247D02*
X122848095Y-118803009D01*
X122848095Y-118803009D02*
X122800476Y-118755390D01*
X122800476Y-118755390D02*
X122705238Y-118707771D01*
X122705238Y-118707771D02*
X122514762Y-118707771D01*
X122514762Y-118707771D02*
X122419524Y-118755390D01*
X122419524Y-118755390D02*
X122371905Y-118803009D01*
X122371905Y-118803009D02*
X122324286Y-118898247D01*
X121944333Y-114500819D02*
X121611000Y-114024628D01*
X121372905Y-114500819D02*
X121372905Y-113500819D01*
X121372905Y-113500819D02*
X121753857Y-113500819D01*
X121753857Y-113500819D02*
X121849095Y-113548438D01*
X121849095Y-113548438D02*
X121896714Y-113596057D01*
X121896714Y-113596057D02*
X121944333Y-113691295D01*
X121944333Y-113691295D02*
X121944333Y-113834152D01*
X121944333Y-113834152D02*
X121896714Y-113929390D01*
X121896714Y-113929390D02*
X121849095Y-113977009D01*
X121849095Y-113977009D02*
X121753857Y-114024628D01*
X121753857Y-114024628D02*
X121372905Y-114024628D01*
X122849095Y-113500819D02*
X122372905Y-113500819D01*
X122372905Y-113500819D02*
X122325286Y-113977009D01*
X122325286Y-113977009D02*
X122372905Y-113929390D01*
X122372905Y-113929390D02*
X122468143Y-113881771D01*
X122468143Y-113881771D02*
X122706238Y-113881771D01*
X122706238Y-113881771D02*
X122801476Y-113929390D01*
X122801476Y-113929390D02*
X122849095Y-113977009D01*
X122849095Y-113977009D02*
X122896714Y-114072247D01*
X122896714Y-114072247D02*
X122896714Y-114310342D01*
X122896714Y-114310342D02*
X122849095Y-114405580D01*
X122849095Y-114405580D02*
X122801476Y-114453200D01*
X122801476Y-114453200D02*
X122706238Y-114500819D01*
X122706238Y-114500819D02*
X122468143Y-114500819D01*
X122468143Y-114500819D02*
X122372905Y-114453200D01*
X122372905Y-114453200D02*
X122325286Y-114405580D01*
X137910605Y-96720819D02*
X137910605Y-95720819D01*
X137910605Y-95720819D02*
X138148700Y-95720819D01*
X138148700Y-95720819D02*
X138291557Y-95768438D01*
X138291557Y-95768438D02*
X138386795Y-95863676D01*
X138386795Y-95863676D02*
X138434414Y-95958914D01*
X138434414Y-95958914D02*
X138482033Y-96149390D01*
X138482033Y-96149390D02*
X138482033Y-96292247D01*
X138482033Y-96292247D02*
X138434414Y-96482723D01*
X138434414Y-96482723D02*
X138386795Y-96577961D01*
X138386795Y-96577961D02*
X138291557Y-96673200D01*
X138291557Y-96673200D02*
X138148700Y-96720819D01*
X138148700Y-96720819D02*
X137910605Y-96720819D01*
X138862986Y-95816057D02*
X138910605Y-95768438D01*
X138910605Y-95768438D02*
X139005843Y-95720819D01*
X139005843Y-95720819D02*
X139243938Y-95720819D01*
X139243938Y-95720819D02*
X139339176Y-95768438D01*
X139339176Y-95768438D02*
X139386795Y-95816057D01*
X139386795Y-95816057D02*
X139434414Y-95911295D01*
X139434414Y-95911295D02*
X139434414Y-96006533D01*
X139434414Y-96006533D02*
X139386795Y-96149390D01*
X139386795Y-96149390D02*
X138815367Y-96720819D01*
X138815367Y-96720819D02*
X139434414Y-96720819D01*
X126198333Y-97089380D02*
X126150714Y-97137000D01*
X126150714Y-97137000D02*
X126007857Y-97184619D01*
X126007857Y-97184619D02*
X125912619Y-97184619D01*
X125912619Y-97184619D02*
X125769762Y-97137000D01*
X125769762Y-97137000D02*
X125674524Y-97041761D01*
X125674524Y-97041761D02*
X125626905Y-96946523D01*
X125626905Y-96946523D02*
X125579286Y-96756047D01*
X125579286Y-96756047D02*
X125579286Y-96613190D01*
X125579286Y-96613190D02*
X125626905Y-96422714D01*
X125626905Y-96422714D02*
X125674524Y-96327476D01*
X125674524Y-96327476D02*
X125769762Y-96232238D01*
X125769762Y-96232238D02*
X125912619Y-96184619D01*
X125912619Y-96184619D02*
X126007857Y-96184619D01*
X126007857Y-96184619D02*
X126150714Y-96232238D01*
X126150714Y-96232238D02*
X126198333Y-96279857D01*
X126579286Y-96279857D02*
X126626905Y-96232238D01*
X126626905Y-96232238D02*
X126722143Y-96184619D01*
X126722143Y-96184619D02*
X126960238Y-96184619D01*
X126960238Y-96184619D02*
X127055476Y-96232238D01*
X127055476Y-96232238D02*
X127103095Y-96279857D01*
X127103095Y-96279857D02*
X127150714Y-96375095D01*
X127150714Y-96375095D02*
X127150714Y-96470333D01*
X127150714Y-96470333D02*
X127103095Y-96613190D01*
X127103095Y-96613190D02*
X126531667Y-97184619D01*
X126531667Y-97184619D02*
X127150714Y-97184619D01*
X129817905Y-108608019D02*
X129817905Y-107608019D01*
X129817905Y-107608019D02*
X130056000Y-107608019D01*
X130056000Y-107608019D02*
X130198857Y-107655638D01*
X130198857Y-107655638D02*
X130294095Y-107750876D01*
X130294095Y-107750876D02*
X130341714Y-107846114D01*
X130341714Y-107846114D02*
X130389333Y-108036590D01*
X130389333Y-108036590D02*
X130389333Y-108179447D01*
X130389333Y-108179447D02*
X130341714Y-108369923D01*
X130341714Y-108369923D02*
X130294095Y-108465161D01*
X130294095Y-108465161D02*
X130198857Y-108560400D01*
X130198857Y-108560400D02*
X130056000Y-108608019D01*
X130056000Y-108608019D02*
X129817905Y-108608019D01*
X130722667Y-107608019D02*
X131341714Y-107608019D01*
X131341714Y-107608019D02*
X131008381Y-107988971D01*
X131008381Y-107988971D02*
X131151238Y-107988971D01*
X131151238Y-107988971D02*
X131246476Y-108036590D01*
X131246476Y-108036590D02*
X131294095Y-108084209D01*
X131294095Y-108084209D02*
X131341714Y-108179447D01*
X131341714Y-108179447D02*
X131341714Y-108417542D01*
X131341714Y-108417542D02*
X131294095Y-108512780D01*
X131294095Y-108512780D02*
X131246476Y-108560400D01*
X131246476Y-108560400D02*
X131151238Y-108608019D01*
X131151238Y-108608019D02*
X130865524Y-108608019D01*
X130865524Y-108608019D02*
X130770286Y-108560400D01*
X130770286Y-108560400D02*
X130722667Y-108512780D01*
X124750533Y-106944580D02*
X124702914Y-106992200D01*
X124702914Y-106992200D02*
X124560057Y-107039819D01*
X124560057Y-107039819D02*
X124464819Y-107039819D01*
X124464819Y-107039819D02*
X124321962Y-106992200D01*
X124321962Y-106992200D02*
X124226724Y-106896961D01*
X124226724Y-106896961D02*
X124179105Y-106801723D01*
X124179105Y-106801723D02*
X124131486Y-106611247D01*
X124131486Y-106611247D02*
X124131486Y-106468390D01*
X124131486Y-106468390D02*
X124179105Y-106277914D01*
X124179105Y-106277914D02*
X124226724Y-106182676D01*
X124226724Y-106182676D02*
X124321962Y-106087438D01*
X124321962Y-106087438D02*
X124464819Y-106039819D01*
X124464819Y-106039819D02*
X124560057Y-106039819D01*
X124560057Y-106039819D02*
X124702914Y-106087438D01*
X124702914Y-106087438D02*
X124750533Y-106135057D01*
X125702914Y-107039819D02*
X125131486Y-107039819D01*
X125417200Y-107039819D02*
X125417200Y-106039819D01*
X125417200Y-106039819D02*
X125321962Y-106182676D01*
X125321962Y-106182676D02*
X125226724Y-106277914D01*
X125226724Y-106277914D02*
X125131486Y-106325533D01*
X138482033Y-107769819D02*
X138148700Y-107293628D01*
X137910605Y-107769819D02*
X137910605Y-106769819D01*
X137910605Y-106769819D02*
X138291557Y-106769819D01*
X138291557Y-106769819D02*
X138386795Y-106817438D01*
X138386795Y-106817438D02*
X138434414Y-106865057D01*
X138434414Y-106865057D02*
X138482033Y-106960295D01*
X138482033Y-106960295D02*
X138482033Y-107103152D01*
X138482033Y-107103152D02*
X138434414Y-107198390D01*
X138434414Y-107198390D02*
X138386795Y-107246009D01*
X138386795Y-107246009D02*
X138291557Y-107293628D01*
X138291557Y-107293628D02*
X137910605Y-107293628D01*
X139339176Y-107103152D02*
X139339176Y-107769819D01*
X139101081Y-106722200D02*
X138862986Y-107436485D01*
X138862986Y-107436485D02*
X139482033Y-107436485D01*
X138482033Y-103705819D02*
X138148700Y-103229628D01*
X137910605Y-103705819D02*
X137910605Y-102705819D01*
X137910605Y-102705819D02*
X138291557Y-102705819D01*
X138291557Y-102705819D02*
X138386795Y-102753438D01*
X138386795Y-102753438D02*
X138434414Y-102801057D01*
X138434414Y-102801057D02*
X138482033Y-102896295D01*
X138482033Y-102896295D02*
X138482033Y-103039152D01*
X138482033Y-103039152D02*
X138434414Y-103134390D01*
X138434414Y-103134390D02*
X138386795Y-103182009D01*
X138386795Y-103182009D02*
X138291557Y-103229628D01*
X138291557Y-103229628D02*
X137910605Y-103229628D01*
X139434414Y-103705819D02*
X138862986Y-103705819D01*
X139148700Y-103705819D02*
X139148700Y-102705819D01*
X139148700Y-102705819D02*
X139053462Y-102848676D01*
X139053462Y-102848676D02*
X138958224Y-102943914D01*
X138958224Y-102943914D02*
X138862986Y-102991533D01*
X138482033Y-98752819D02*
X138148700Y-98276628D01*
X137910605Y-98752819D02*
X137910605Y-97752819D01*
X137910605Y-97752819D02*
X138291557Y-97752819D01*
X138291557Y-97752819D02*
X138386795Y-97800438D01*
X138386795Y-97800438D02*
X138434414Y-97848057D01*
X138434414Y-97848057D02*
X138482033Y-97943295D01*
X138482033Y-97943295D02*
X138482033Y-98086152D01*
X138482033Y-98086152D02*
X138434414Y-98181390D01*
X138434414Y-98181390D02*
X138386795Y-98229009D01*
X138386795Y-98229009D02*
X138291557Y-98276628D01*
X138291557Y-98276628D02*
X137910605Y-98276628D01*
X138862986Y-97848057D02*
X138910605Y-97800438D01*
X138910605Y-97800438D02*
X139005843Y-97752819D01*
X139005843Y-97752819D02*
X139243938Y-97752819D01*
X139243938Y-97752819D02*
X139339176Y-97800438D01*
X139339176Y-97800438D02*
X139386795Y-97848057D01*
X139386795Y-97848057D02*
X139434414Y-97943295D01*
X139434414Y-97943295D02*
X139434414Y-98038533D01*
X139434414Y-98038533D02*
X139386795Y-98181390D01*
X139386795Y-98181390D02*
X138815367Y-98752819D01*
X138815367Y-98752819D02*
X139434414Y-98752819D01*
X138482033Y-109522419D02*
X138148700Y-109046228D01*
X137910605Y-109522419D02*
X137910605Y-108522419D01*
X137910605Y-108522419D02*
X138291557Y-108522419D01*
X138291557Y-108522419D02*
X138386795Y-108570038D01*
X138386795Y-108570038D02*
X138434414Y-108617657D01*
X138434414Y-108617657D02*
X138482033Y-108712895D01*
X138482033Y-108712895D02*
X138482033Y-108855752D01*
X138482033Y-108855752D02*
X138434414Y-108950990D01*
X138434414Y-108950990D02*
X138386795Y-108998609D01*
X138386795Y-108998609D02*
X138291557Y-109046228D01*
X138291557Y-109046228D02*
X137910605Y-109046228D01*
X138815367Y-108522419D02*
X139434414Y-108522419D01*
X139434414Y-108522419D02*
X139101081Y-108903371D01*
X139101081Y-108903371D02*
X139243938Y-108903371D01*
X139243938Y-108903371D02*
X139339176Y-108950990D01*
X139339176Y-108950990D02*
X139386795Y-108998609D01*
X139386795Y-108998609D02*
X139434414Y-109093847D01*
X139434414Y-109093847D02*
X139434414Y-109331942D01*
X139434414Y-109331942D02*
X139386795Y-109427180D01*
X139386795Y-109427180D02*
X139339176Y-109474800D01*
X139339176Y-109474800D02*
X139243938Y-109522419D01*
X139243938Y-109522419D02*
X138958224Y-109522419D01*
X138958224Y-109522419D02*
X138862986Y-109474800D01*
X138862986Y-109474800D02*
X138815367Y-109427180D01*
D12*
%TO.C,U1*%
X127544000Y-101736000D02*
X127544000Y-100236000D01*
X127544000Y-101736000D02*
X127544000Y-103236000D01*
X130764000Y-101736000D02*
X130764000Y-100236000D01*
X130764000Y-101736000D02*
X130764000Y-103236000D01*
X127744000Y-103923500D02*
X127414000Y-104163500D01*
X127414000Y-103683500D01*
X127744000Y-103923500D01*
G36*
X127744000Y-103923500D02*
G01*
X127414000Y-104163500D01*
X127414000Y-103683500D01*
X127744000Y-103923500D01*
G37*
%TO.C,D1*%
X134423700Y-104323000D02*
X134423700Y-106243000D01*
X134423700Y-106243000D02*
X137108700Y-106243000D01*
X137108700Y-104323000D02*
X134423700Y-104323000D01*
%TO.C,TH1*%
X130068200Y-96215200D02*
X130138200Y-96215200D01*
X130068200Y-96215200D02*
G75*
G02*
X127328200Y-96215200I-1370000J0D01*
G01*
X127328200Y-96215200D02*
G75*
G02*
X130068200Y-96215200I1370000J0D01*
G01*
%TO.C,R6*%
X122347258Y-116825500D02*
X121872742Y-116825500D01*
X122347258Y-117870500D02*
X121872742Y-117870500D01*
%TO.C,J1*%
X125010000Y-116357800D02*
X125010000Y-114657800D01*
X134350000Y-116357800D02*
X134350000Y-114657800D01*
%TO.C,R5*%
X122348258Y-115047500D02*
X121873742Y-115047500D01*
X122348258Y-116092500D02*
X121873742Y-116092500D01*
%TO.C,D2*%
X134423700Y-95306000D02*
X134423700Y-97226000D01*
X134423700Y-97226000D02*
X137108700Y-97226000D01*
X137108700Y-95306000D02*
X134423700Y-95306000D01*
%TO.C,C2*%
X125880400Y-98953180D02*
X125880400Y-98672020D01*
X126900400Y-98953180D02*
X126900400Y-98672020D01*
%TO.C,D3*%
X122324000Y-107578000D02*
X122324000Y-111878000D01*
X122324000Y-107578000D02*
X128134000Y-107578000D01*
X122324000Y-111878000D02*
X128134000Y-111878000D01*
%TO.C,C1*%
X127508580Y-106024200D02*
X127227420Y-106024200D01*
X127508580Y-107044200D02*
X127227420Y-107044200D01*
%TO.C,R4*%
X136330458Y-106792500D02*
X135855942Y-106792500D01*
X136330458Y-107837500D02*
X135855942Y-107837500D01*
%TO.C,R1*%
X136345958Y-102728500D02*
X135871442Y-102728500D01*
X136345958Y-103773500D02*
X135871442Y-103773500D01*
%TO.C,R2*%
X136345958Y-97775500D02*
X135871442Y-97775500D01*
X136345958Y-98820500D02*
X135871442Y-98820500D01*
%TO.C,R3*%
X136330458Y-108545100D02*
X135855942Y-108545100D01*
X136330458Y-109590100D02*
X135855942Y-109590100D01*
%TD*%
M02*
