M48
; DRILL file {KiCad 9.0.0} date 2025-11-29T17:38:35+0100
; FORMAT={-:-/ absolute / metric / decimal}
; #@! TF.CreationDate,2025-11-29T17:38:35+01:00
; #@! TF.GenerationSoftware,Kicad,Pcbnew,9.0.0
; #@! TF.FileFunction,Plated,1,2,PTH
FMAT,2
METRIC
; #@! TA.AperFunction,Plated,PTH,ViaDrill
T1C0.300
; #@! TA.AperFunction,Plated,PTH,ComponentDrill
T2C0.300
; #@! TA.AperFunction,Plated,PTH,ViaDrill
T3C0.310
; #@! TA.AperFunction,Plated,PTH,ComponentDrill
T4C0.600
; #@! TA.AperFunction,Plated,PTH,ComponentDrill
T5C0.750
; #@! TA.AperFunction,Plated,PTH,ViaDrill
T6C0.800
; #@! TA.AperFunction,Plated,PTH,ComponentDrill
T7C0.800
%
G90
G05
T1
X131.242Y-101.759
T2
X128.514Y-101.251
X128.514Y-102.221
X129.794Y-101.251
X129.794Y-102.221
T3
X127.406Y-99.588
X131.216Y-98.298
T5
X121.919Y-99.568
X121.92Y-97.79
X124.297Y-97.757
X124.297Y-99.588
T6
X123.266Y-101.473
X123.266Y-102.997
X124.866Y-101.422
X124.866Y-102.946
X132.131Y-100.972
X132.131Y-102.8
X133.502Y-100.076
X133.502Y-101.854
X133.502Y-103.759
T7
X128.698Y-96.215
X131.238Y-96.215
T4
G00X125.36Y-113.308
M15
G01X125.36Y-113.908
M16
G05
G00X125.36Y-117.108
M15
G01X125.36Y-117.708
M16
G05
G00X134.0Y-113.308
M15
G01X134.0Y-113.908
M16
G05
G00X134.0Y-117.108
M15
G01X134.0Y-117.708
M16
G05
M30
