%TF.GenerationSoftware,KiCad,Pcbnew,9.0.0*%
%TF.CreationDate,2025-11-29T18:06:43+01:00*%
%TF.ProjectId,Battery power module,42617474-6572-4792-9070-6f776572206d,rev?*%
%TF.SameCoordinates,Original*%
%TF.FileFunction,Legend,Bot*%
%TF.FilePolarity,Positive*%
%FSLAX46Y46*%
G04 Gerber Fmt 4.6, Leading zero omitted, Abs format (unit mm)*
G04 Created by KiCad (PCBNEW 9.0.0) date 2025-11-29 18:06:43*
%MOMM*%
%LPD*%
G01*
G04 APERTURE LIST*
%ADD10C,0.100000*%
%ADD11C,0.125000*%
G04 APERTURE END LIST*
D10*
X122174915Y-101091466D02*
X121413011Y-101091466D01*
X121793963Y-101472419D02*
X121793963Y-100710514D01*
X121818933Y-96825715D02*
X121818933Y-96063811D01*
D11*
X137056365Y-98570664D02*
X137103984Y-98713521D01*
X137103984Y-98713521D02*
X137151603Y-98761140D01*
X137151603Y-98761140D02*
X137246841Y-98808759D01*
X137246841Y-98808759D02*
X137389698Y-98808759D01*
X137389698Y-98808759D02*
X137484936Y-98761140D01*
X137484936Y-98761140D02*
X137532556Y-98713521D01*
X137532556Y-98713521D02*
X137580175Y-98618283D01*
X137580175Y-98618283D02*
X137580175Y-98237331D01*
X137580175Y-98237331D02*
X136580175Y-98237331D01*
X136580175Y-98237331D02*
X136580175Y-98570664D01*
X136580175Y-98570664D02*
X136627794Y-98665902D01*
X136627794Y-98665902D02*
X136675413Y-98713521D01*
X136675413Y-98713521D02*
X136770651Y-98761140D01*
X136770651Y-98761140D02*
X136865889Y-98761140D01*
X136865889Y-98761140D02*
X136961127Y-98713521D01*
X136961127Y-98713521D02*
X137008746Y-98665902D01*
X137008746Y-98665902D02*
X137056365Y-98570664D01*
X137056365Y-98570664D02*
X137056365Y-98237331D01*
X137580175Y-99665902D02*
X137056365Y-99665902D01*
X137056365Y-99665902D02*
X136961127Y-99618283D01*
X136961127Y-99618283D02*
X136913508Y-99523045D01*
X136913508Y-99523045D02*
X136913508Y-99332569D01*
X136913508Y-99332569D02*
X136961127Y-99237331D01*
X137532556Y-99665902D02*
X137580175Y-99570664D01*
X137580175Y-99570664D02*
X137580175Y-99332569D01*
X137580175Y-99332569D02*
X137532556Y-99237331D01*
X137532556Y-99237331D02*
X137437317Y-99189712D01*
X137437317Y-99189712D02*
X137342079Y-99189712D01*
X137342079Y-99189712D02*
X137246841Y-99237331D01*
X137246841Y-99237331D02*
X137199222Y-99332569D01*
X137199222Y-99332569D02*
X137199222Y-99570664D01*
X137199222Y-99570664D02*
X137151603Y-99665902D01*
X136913508Y-99999236D02*
X136913508Y-100380188D01*
X136580175Y-100142093D02*
X137437317Y-100142093D01*
X137437317Y-100142093D02*
X137532556Y-100189712D01*
X137532556Y-100189712D02*
X137580175Y-100284950D01*
X137580175Y-100284950D02*
X137580175Y-100380188D01*
X136913508Y-100570665D02*
X136913508Y-100951617D01*
X136580175Y-100713522D02*
X137437317Y-100713522D01*
X137437317Y-100713522D02*
X137532556Y-100761141D01*
X137532556Y-100761141D02*
X137580175Y-100856379D01*
X137580175Y-100856379D02*
X137580175Y-100951617D01*
X137532556Y-101665903D02*
X137580175Y-101570665D01*
X137580175Y-101570665D02*
X137580175Y-101380189D01*
X137580175Y-101380189D02*
X137532556Y-101284951D01*
X137532556Y-101284951D02*
X137437317Y-101237332D01*
X137437317Y-101237332D02*
X137056365Y-101237332D01*
X137056365Y-101237332D02*
X136961127Y-101284951D01*
X136961127Y-101284951D02*
X136913508Y-101380189D01*
X136913508Y-101380189D02*
X136913508Y-101570665D01*
X136913508Y-101570665D02*
X136961127Y-101665903D01*
X136961127Y-101665903D02*
X137056365Y-101713522D01*
X137056365Y-101713522D02*
X137151603Y-101713522D01*
X137151603Y-101713522D02*
X137246841Y-101237332D01*
X137580175Y-102142094D02*
X136913508Y-102142094D01*
X137103984Y-102142094D02*
X137008746Y-102189713D01*
X137008746Y-102189713D02*
X136961127Y-102237332D01*
X136961127Y-102237332D02*
X136913508Y-102332570D01*
X136913508Y-102332570D02*
X136913508Y-102427808D01*
X136913508Y-102665904D02*
X137580175Y-102903999D01*
X136913508Y-103142094D02*
X137580175Y-102903999D01*
X137580175Y-102903999D02*
X137818270Y-102808761D01*
X137818270Y-102808761D02*
X137865889Y-102761142D01*
X137865889Y-102761142D02*
X137913508Y-102665904D01*
X136913508Y-104284952D02*
X137913508Y-104284952D01*
X136961127Y-104284952D02*
X136913508Y-104380190D01*
X136913508Y-104380190D02*
X136913508Y-104570666D01*
X136913508Y-104570666D02*
X136961127Y-104665904D01*
X136961127Y-104665904D02*
X137008746Y-104713523D01*
X137008746Y-104713523D02*
X137103984Y-104761142D01*
X137103984Y-104761142D02*
X137389698Y-104761142D01*
X137389698Y-104761142D02*
X137484936Y-104713523D01*
X137484936Y-104713523D02*
X137532556Y-104665904D01*
X137532556Y-104665904D02*
X137580175Y-104570666D01*
X137580175Y-104570666D02*
X137580175Y-104380190D01*
X137580175Y-104380190D02*
X137532556Y-104284952D01*
X137580175Y-105332571D02*
X137532556Y-105237333D01*
X137532556Y-105237333D02*
X137484936Y-105189714D01*
X137484936Y-105189714D02*
X137389698Y-105142095D01*
X137389698Y-105142095D02*
X137103984Y-105142095D01*
X137103984Y-105142095D02*
X137008746Y-105189714D01*
X137008746Y-105189714D02*
X136961127Y-105237333D01*
X136961127Y-105237333D02*
X136913508Y-105332571D01*
X136913508Y-105332571D02*
X136913508Y-105475428D01*
X136913508Y-105475428D02*
X136961127Y-105570666D01*
X136961127Y-105570666D02*
X137008746Y-105618285D01*
X137008746Y-105618285D02*
X137103984Y-105665904D01*
X137103984Y-105665904D02*
X137389698Y-105665904D01*
X137389698Y-105665904D02*
X137484936Y-105618285D01*
X137484936Y-105618285D02*
X137532556Y-105570666D01*
X137532556Y-105570666D02*
X137580175Y-105475428D01*
X137580175Y-105475428D02*
X137580175Y-105332571D01*
X136913508Y-105999238D02*
X137580175Y-106189714D01*
X137580175Y-106189714D02*
X137103984Y-106380190D01*
X137103984Y-106380190D02*
X137580175Y-106570666D01*
X137580175Y-106570666D02*
X136913508Y-106761142D01*
X137532556Y-107523047D02*
X137580175Y-107427809D01*
X137580175Y-107427809D02*
X137580175Y-107237333D01*
X137580175Y-107237333D02*
X137532556Y-107142095D01*
X137532556Y-107142095D02*
X137437317Y-107094476D01*
X137437317Y-107094476D02*
X137056365Y-107094476D01*
X137056365Y-107094476D02*
X136961127Y-107142095D01*
X136961127Y-107142095D02*
X136913508Y-107237333D01*
X136913508Y-107237333D02*
X136913508Y-107427809D01*
X136913508Y-107427809D02*
X136961127Y-107523047D01*
X136961127Y-107523047D02*
X137056365Y-107570666D01*
X137056365Y-107570666D02*
X137151603Y-107570666D01*
X137151603Y-107570666D02*
X137246841Y-107094476D01*
X137580175Y-107999238D02*
X136913508Y-107999238D01*
X137103984Y-107999238D02*
X137008746Y-108046857D01*
X137008746Y-108046857D02*
X136961127Y-108094476D01*
X136961127Y-108094476D02*
X136913508Y-108189714D01*
X136913508Y-108189714D02*
X136913508Y-108284952D01*
X137580175Y-109380191D02*
X136913508Y-109380191D01*
X137008746Y-109380191D02*
X136961127Y-109427810D01*
X136961127Y-109427810D02*
X136913508Y-109523048D01*
X136913508Y-109523048D02*
X136913508Y-109665905D01*
X136913508Y-109665905D02*
X136961127Y-109761143D01*
X136961127Y-109761143D02*
X137056365Y-109808762D01*
X137056365Y-109808762D02*
X137580175Y-109808762D01*
X137056365Y-109808762D02*
X136961127Y-109856381D01*
X136961127Y-109856381D02*
X136913508Y-109951619D01*
X136913508Y-109951619D02*
X136913508Y-110094476D01*
X136913508Y-110094476D02*
X136961127Y-110189715D01*
X136961127Y-110189715D02*
X137056365Y-110237334D01*
X137056365Y-110237334D02*
X137580175Y-110237334D01*
X137580175Y-110856381D02*
X137532556Y-110761143D01*
X137532556Y-110761143D02*
X137484936Y-110713524D01*
X137484936Y-110713524D02*
X137389698Y-110665905D01*
X137389698Y-110665905D02*
X137103984Y-110665905D01*
X137103984Y-110665905D02*
X137008746Y-110713524D01*
X137008746Y-110713524D02*
X136961127Y-110761143D01*
X136961127Y-110761143D02*
X136913508Y-110856381D01*
X136913508Y-110856381D02*
X136913508Y-110999238D01*
X136913508Y-110999238D02*
X136961127Y-111094476D01*
X136961127Y-111094476D02*
X137008746Y-111142095D01*
X137008746Y-111142095D02*
X137103984Y-111189714D01*
X137103984Y-111189714D02*
X137389698Y-111189714D01*
X137389698Y-111189714D02*
X137484936Y-111142095D01*
X137484936Y-111142095D02*
X137532556Y-111094476D01*
X137532556Y-111094476D02*
X137580175Y-110999238D01*
X137580175Y-110999238D02*
X137580175Y-110856381D01*
X137580175Y-112046857D02*
X136580175Y-112046857D01*
X137532556Y-112046857D02*
X137580175Y-111951619D01*
X137580175Y-111951619D02*
X137580175Y-111761143D01*
X137580175Y-111761143D02*
X137532556Y-111665905D01*
X137532556Y-111665905D02*
X137484936Y-111618286D01*
X137484936Y-111618286D02*
X137389698Y-111570667D01*
X137389698Y-111570667D02*
X137103984Y-111570667D01*
X137103984Y-111570667D02*
X137008746Y-111618286D01*
X137008746Y-111618286D02*
X136961127Y-111665905D01*
X136961127Y-111665905D02*
X136913508Y-111761143D01*
X136913508Y-111761143D02*
X136913508Y-111951619D01*
X136913508Y-111951619D02*
X136961127Y-112046857D01*
X136913508Y-112951619D02*
X137580175Y-112951619D01*
X136913508Y-112523048D02*
X137437317Y-112523048D01*
X137437317Y-112523048D02*
X137532556Y-112570667D01*
X137532556Y-112570667D02*
X137580175Y-112665905D01*
X137580175Y-112665905D02*
X137580175Y-112808762D01*
X137580175Y-112808762D02*
X137532556Y-112904000D01*
X137532556Y-112904000D02*
X137484936Y-112951619D01*
X137580175Y-113570667D02*
X137532556Y-113475429D01*
X137532556Y-113475429D02*
X137437317Y-113427810D01*
X137437317Y-113427810D02*
X136580175Y-113427810D01*
X137532556Y-114332572D02*
X137580175Y-114237334D01*
X137580175Y-114237334D02*
X137580175Y-114046858D01*
X137580175Y-114046858D02*
X137532556Y-113951620D01*
X137532556Y-113951620D02*
X137437317Y-113904001D01*
X137437317Y-113904001D02*
X137056365Y-113904001D01*
X137056365Y-113904001D02*
X136961127Y-113951620D01*
X136961127Y-113951620D02*
X136913508Y-114046858D01*
X136913508Y-114046858D02*
X136913508Y-114237334D01*
X136913508Y-114237334D02*
X136961127Y-114332572D01*
X136961127Y-114332572D02*
X137056365Y-114380191D01*
X137056365Y-114380191D02*
X137151603Y-114380191D01*
X137151603Y-114380191D02*
X137246841Y-113904001D01*
X139190119Y-98237331D02*
X138190119Y-98237331D01*
X138571071Y-98237331D02*
X138523452Y-98332569D01*
X138523452Y-98332569D02*
X138523452Y-98523045D01*
X138523452Y-98523045D02*
X138571071Y-98618283D01*
X138571071Y-98618283D02*
X138618690Y-98665902D01*
X138618690Y-98665902D02*
X138713928Y-98713521D01*
X138713928Y-98713521D02*
X138999642Y-98713521D01*
X138999642Y-98713521D02*
X139094880Y-98665902D01*
X139094880Y-98665902D02*
X139142500Y-98618283D01*
X139142500Y-98618283D02*
X139190119Y-98523045D01*
X139190119Y-98523045D02*
X139190119Y-98332569D01*
X139190119Y-98332569D02*
X139142500Y-98237331D01*
X138523452Y-99046855D02*
X139190119Y-99284950D01*
X138523452Y-99523045D02*
X139190119Y-99284950D01*
X139190119Y-99284950D02*
X139428214Y-99189712D01*
X139428214Y-99189712D02*
X139475833Y-99142093D01*
X139475833Y-99142093D02*
X139523452Y-99046855D01*
X139190119Y-100665903D02*
X138190119Y-100665903D01*
X139190119Y-101094474D02*
X138666309Y-101094474D01*
X138666309Y-101094474D02*
X138571071Y-101046855D01*
X138571071Y-101046855D02*
X138523452Y-100951617D01*
X138523452Y-100951617D02*
X138523452Y-100808760D01*
X138523452Y-100808760D02*
X138571071Y-100713522D01*
X138571071Y-100713522D02*
X138618690Y-100665903D01*
X138523452Y-101999236D02*
X139190119Y-101999236D01*
X138523452Y-101570665D02*
X139047261Y-101570665D01*
X139047261Y-101570665D02*
X139142500Y-101618284D01*
X139142500Y-101618284D02*
X139190119Y-101713522D01*
X139190119Y-101713522D02*
X139190119Y-101856379D01*
X139190119Y-101856379D02*
X139142500Y-101951617D01*
X139142500Y-101951617D02*
X139094880Y-101999236D01*
X138523452Y-102903998D02*
X139332976Y-102903998D01*
X139332976Y-102903998D02*
X139428214Y-102856379D01*
X139428214Y-102856379D02*
X139475833Y-102808760D01*
X139475833Y-102808760D02*
X139523452Y-102713522D01*
X139523452Y-102713522D02*
X139523452Y-102570665D01*
X139523452Y-102570665D02*
X139475833Y-102475427D01*
X139142500Y-102903998D02*
X139190119Y-102808760D01*
X139190119Y-102808760D02*
X139190119Y-102618284D01*
X139190119Y-102618284D02*
X139142500Y-102523046D01*
X139142500Y-102523046D02*
X139094880Y-102475427D01*
X139094880Y-102475427D02*
X138999642Y-102427808D01*
X138999642Y-102427808D02*
X138713928Y-102427808D01*
X138713928Y-102427808D02*
X138618690Y-102475427D01*
X138618690Y-102475427D02*
X138571071Y-102523046D01*
X138571071Y-102523046D02*
X138523452Y-102618284D01*
X138523452Y-102618284D02*
X138523452Y-102808760D01*
X138523452Y-102808760D02*
X138571071Y-102903998D01*
X139190119Y-103523046D02*
X139142500Y-103427808D01*
X139142500Y-103427808D02*
X139094880Y-103380189D01*
X139094880Y-103380189D02*
X138999642Y-103332570D01*
X138999642Y-103332570D02*
X138713928Y-103332570D01*
X138713928Y-103332570D02*
X138618690Y-103380189D01*
X138618690Y-103380189D02*
X138571071Y-103427808D01*
X138571071Y-103427808D02*
X138523452Y-103523046D01*
X138523452Y-103523046D02*
X138523452Y-103665903D01*
X138523452Y-103665903D02*
X138571071Y-103761141D01*
X138571071Y-103761141D02*
X138618690Y-103808760D01*
X138618690Y-103808760D02*
X138713928Y-103856379D01*
X138713928Y-103856379D02*
X138999642Y-103856379D01*
X138999642Y-103856379D02*
X139094880Y-103808760D01*
X139094880Y-103808760D02*
X139142500Y-103761141D01*
X139142500Y-103761141D02*
X139190119Y-103665903D01*
X139190119Y-103665903D02*
X139190119Y-103523046D01*
X138285357Y-104237332D02*
X138237738Y-104284951D01*
X138237738Y-104284951D02*
X138190119Y-104380189D01*
X138190119Y-104380189D02*
X138190119Y-104618284D01*
X138190119Y-104618284D02*
X138237738Y-104713522D01*
X138237738Y-104713522D02*
X138285357Y-104761141D01*
X138285357Y-104761141D02*
X138380595Y-104808760D01*
X138380595Y-104808760D02*
X138475833Y-104808760D01*
X138475833Y-104808760D02*
X138618690Y-104761141D01*
X138618690Y-104761141D02*
X139190119Y-104189713D01*
X139190119Y-104189713D02*
X139190119Y-104808760D01*
X138190119Y-105427808D02*
X138190119Y-105523046D01*
X138190119Y-105523046D02*
X138237738Y-105618284D01*
X138237738Y-105618284D02*
X138285357Y-105665903D01*
X138285357Y-105665903D02*
X138380595Y-105713522D01*
X138380595Y-105713522D02*
X138571071Y-105761141D01*
X138571071Y-105761141D02*
X138809166Y-105761141D01*
X138809166Y-105761141D02*
X138999642Y-105713522D01*
X138999642Y-105713522D02*
X139094880Y-105665903D01*
X139094880Y-105665903D02*
X139142500Y-105618284D01*
X139142500Y-105618284D02*
X139190119Y-105523046D01*
X139190119Y-105523046D02*
X139190119Y-105427808D01*
X139190119Y-105427808D02*
X139142500Y-105332570D01*
X139142500Y-105332570D02*
X139094880Y-105284951D01*
X139094880Y-105284951D02*
X138999642Y-105237332D01*
X138999642Y-105237332D02*
X138809166Y-105189713D01*
X138809166Y-105189713D02*
X138571071Y-105189713D01*
X138571071Y-105189713D02*
X138380595Y-105237332D01*
X138380595Y-105237332D02*
X138285357Y-105284951D01*
X138285357Y-105284951D02*
X138237738Y-105332570D01*
X138237738Y-105332570D02*
X138190119Y-105427808D01*
X138618690Y-106332570D02*
X138571071Y-106237332D01*
X138571071Y-106237332D02*
X138523452Y-106189713D01*
X138523452Y-106189713D02*
X138428214Y-106142094D01*
X138428214Y-106142094D02*
X138380595Y-106142094D01*
X138380595Y-106142094D02*
X138285357Y-106189713D01*
X138285357Y-106189713D02*
X138237738Y-106237332D01*
X138237738Y-106237332D02*
X138190119Y-106332570D01*
X138190119Y-106332570D02*
X138190119Y-106523046D01*
X138190119Y-106523046D02*
X138237738Y-106618284D01*
X138237738Y-106618284D02*
X138285357Y-106665903D01*
X138285357Y-106665903D02*
X138380595Y-106713522D01*
X138380595Y-106713522D02*
X138428214Y-106713522D01*
X138428214Y-106713522D02*
X138523452Y-106665903D01*
X138523452Y-106665903D02*
X138571071Y-106618284D01*
X138571071Y-106618284D02*
X138618690Y-106523046D01*
X138618690Y-106523046D02*
X138618690Y-106332570D01*
X138618690Y-106332570D02*
X138666309Y-106237332D01*
X138666309Y-106237332D02*
X138713928Y-106189713D01*
X138713928Y-106189713D02*
X138809166Y-106142094D01*
X138809166Y-106142094D02*
X138999642Y-106142094D01*
X138999642Y-106142094D02*
X139094880Y-106189713D01*
X139094880Y-106189713D02*
X139142500Y-106237332D01*
X139142500Y-106237332D02*
X139190119Y-106332570D01*
X139190119Y-106332570D02*
X139190119Y-106523046D01*
X139190119Y-106523046D02*
X139142500Y-106618284D01*
X139142500Y-106618284D02*
X139094880Y-106665903D01*
X139094880Y-106665903D02*
X138999642Y-106713522D01*
X138999642Y-106713522D02*
X138809166Y-106713522D01*
X138809166Y-106713522D02*
X138713928Y-106665903D01*
X138713928Y-106665903D02*
X138666309Y-106618284D01*
X138666309Y-106618284D02*
X138618690Y-106523046D01*
X138190119Y-107332570D02*
X138190119Y-107427808D01*
X138190119Y-107427808D02*
X138237738Y-107523046D01*
X138237738Y-107523046D02*
X138285357Y-107570665D01*
X138285357Y-107570665D02*
X138380595Y-107618284D01*
X138380595Y-107618284D02*
X138571071Y-107665903D01*
X138571071Y-107665903D02*
X138809166Y-107665903D01*
X138809166Y-107665903D02*
X138999642Y-107618284D01*
X138999642Y-107618284D02*
X139094880Y-107570665D01*
X139094880Y-107570665D02*
X139142500Y-107523046D01*
X139142500Y-107523046D02*
X139190119Y-107427808D01*
X139190119Y-107427808D02*
X139190119Y-107332570D01*
X139190119Y-107332570D02*
X139142500Y-107237332D01*
X139142500Y-107237332D02*
X139094880Y-107189713D01*
X139094880Y-107189713D02*
X138999642Y-107142094D01*
X138999642Y-107142094D02*
X138809166Y-107094475D01*
X138809166Y-107094475D02*
X138571071Y-107094475D01*
X138571071Y-107094475D02*
X138380595Y-107142094D01*
X138380595Y-107142094D02*
X138285357Y-107189713D01*
X138285357Y-107189713D02*
X138237738Y-107237332D01*
X138237738Y-107237332D02*
X138190119Y-107332570D01*
X138285357Y-108808761D02*
X138237738Y-108856380D01*
X138237738Y-108856380D02*
X138190119Y-108951618D01*
X138190119Y-108951618D02*
X138190119Y-109189713D01*
X138190119Y-109189713D02*
X138237738Y-109284951D01*
X138237738Y-109284951D02*
X138285357Y-109332570D01*
X138285357Y-109332570D02*
X138380595Y-109380189D01*
X138380595Y-109380189D02*
X138475833Y-109380189D01*
X138475833Y-109380189D02*
X138618690Y-109332570D01*
X138618690Y-109332570D02*
X139190119Y-108761142D01*
X139190119Y-108761142D02*
X139190119Y-109380189D01*
X138190119Y-109999237D02*
X138190119Y-110094475D01*
X138190119Y-110094475D02*
X138237738Y-110189713D01*
X138237738Y-110189713D02*
X138285357Y-110237332D01*
X138285357Y-110237332D02*
X138380595Y-110284951D01*
X138380595Y-110284951D02*
X138571071Y-110332570D01*
X138571071Y-110332570D02*
X138809166Y-110332570D01*
X138809166Y-110332570D02*
X138999642Y-110284951D01*
X138999642Y-110284951D02*
X139094880Y-110237332D01*
X139094880Y-110237332D02*
X139142500Y-110189713D01*
X139142500Y-110189713D02*
X139190119Y-110094475D01*
X139190119Y-110094475D02*
X139190119Y-109999237D01*
X139190119Y-109999237D02*
X139142500Y-109903999D01*
X139142500Y-109903999D02*
X139094880Y-109856380D01*
X139094880Y-109856380D02*
X138999642Y-109808761D01*
X138999642Y-109808761D02*
X138809166Y-109761142D01*
X138809166Y-109761142D02*
X138571071Y-109761142D01*
X138571071Y-109761142D02*
X138380595Y-109808761D01*
X138380595Y-109808761D02*
X138285357Y-109856380D01*
X138285357Y-109856380D02*
X138237738Y-109903999D01*
X138237738Y-109903999D02*
X138190119Y-109999237D01*
X138285357Y-110713523D02*
X138237738Y-110761142D01*
X138237738Y-110761142D02*
X138190119Y-110856380D01*
X138190119Y-110856380D02*
X138190119Y-111094475D01*
X138190119Y-111094475D02*
X138237738Y-111189713D01*
X138237738Y-111189713D02*
X138285357Y-111237332D01*
X138285357Y-111237332D02*
X138380595Y-111284951D01*
X138380595Y-111284951D02*
X138475833Y-111284951D01*
X138475833Y-111284951D02*
X138618690Y-111237332D01*
X138618690Y-111237332D02*
X139190119Y-110665904D01*
X139190119Y-110665904D02*
X139190119Y-111284951D01*
X138190119Y-112189713D02*
X138190119Y-111713523D01*
X138190119Y-111713523D02*
X138666309Y-111665904D01*
X138666309Y-111665904D02*
X138618690Y-111713523D01*
X138618690Y-111713523D02*
X138571071Y-111808761D01*
X138571071Y-111808761D02*
X138571071Y-112046856D01*
X138571071Y-112046856D02*
X138618690Y-112142094D01*
X138618690Y-112142094D02*
X138666309Y-112189713D01*
X138666309Y-112189713D02*
X138761547Y-112237332D01*
X138761547Y-112237332D02*
X138999642Y-112237332D01*
X138999642Y-112237332D02*
X139094880Y-112189713D01*
X139094880Y-112189713D02*
X139142500Y-112142094D01*
X139142500Y-112142094D02*
X139190119Y-112046856D01*
X139190119Y-112046856D02*
X139190119Y-111808761D01*
X139190119Y-111808761D02*
X139142500Y-111713523D01*
X139142500Y-111713523D02*
X139094880Y-111665904D01*
M02*
