%TF.GenerationSoftware,KiCad,Pcbnew,9.0.0*%
%TF.CreationDate,2025-11-29T18:06:43+01:00*%
%TF.ProjectId,Battery power module,42617474-6572-4792-9070-6f776572206d,rev?*%
%TF.SameCoordinates,Original*%
%TF.FileFunction,Copper,L2,Bot*%
%TF.FilePolarity,Positive*%
%FSLAX46Y46*%
G04 Gerber Fmt 4.6, Leading zero omitted, Abs format (unit mm)*
G04 Created by KiCad (PCBNEW 9.0.0) date 2025-11-29 18:06:43*
%MOMM*%
%LPD*%
G01*
G04 APERTURE LIST*
G04 Aperture macros list*
%AMRoundRect*
0 Rectangle with rounded corners*
0 $1 Rounding radius*
0 $2 $3 $4 $5 $6 $7 $8 $9 X,Y pos of 4 corners*
0 Add a 4 corners polygon primitive as box body*
4,1,4,$2,$3,$4,$5,$6,$7,$8,$9,$2,$3,0*
0 Add four circle primitives for the rounded corners*
1,1,$1+$1,$2,$3*
1,1,$1+$1,$4,$5*
1,1,$1+$1,$6,$7*
1,1,$1+$1,$8,$9*
0 Add four rect primitives between the rounded corners*
20,1,$1+$1,$2,$3,$4,$5,0*
20,1,$1+$1,$4,$5,$6,$7,0*
20,1,$1+$1,$6,$7,$8,$9,0*
20,1,$1+$1,$8,$9,$2,$3,0*%
G04 Aperture macros list end*
%TA.AperFunction,HeatsinkPad*%
%ADD10C,0.600000*%
%TD*%
%TA.AperFunction,HeatsinkPad*%
%ADD11R,1.880000X1.570000*%
%TD*%
%TA.AperFunction,ComponentPad*%
%ADD12C,1.600000*%
%TD*%
%TA.AperFunction,ComponentPad*%
%ADD13O,1.600000X1.600000*%
%TD*%
%TA.AperFunction,ComponentPad*%
%ADD14RoundRect,0.250000X-0.625000X0.350000X-0.625000X-0.350000X0.625000X-0.350000X0.625000X0.350000X0*%
%TD*%
%TA.AperFunction,HeatsinkPad*%
%ADD15O,1.100000X1.700000*%
%TD*%
%TA.AperFunction,ComponentPad*%
%ADD16O,1.750000X1.200000*%
%TD*%
%TA.AperFunction,ViaPad*%
%ADD17C,1.340000*%
%TD*%
%TA.AperFunction,ViaPad*%
%ADD18C,0.600000*%
%TD*%
%TA.AperFunction,ViaPad*%
%ADD19C,0.620000*%
%TD*%
%TA.AperFunction,Conductor*%
%ADD20C,0.254000*%
%TD*%
G04 APERTURE END LIST*
D10*
%TO.P,U1,11,VSS*%
%TO.N,GND*%
X128514000Y-102221000D03*
X129794000Y-102221000D03*
D11*
X129154000Y-101736000D03*
D10*
X128514000Y-101251000D03*
X129794000Y-101251000D03*
%TD*%
D12*
%TO.P,TH1,1*%
%TO.N,/TS*%
X128698200Y-96215200D03*
D13*
%TO.P,TH1,2*%
%TO.N,GND*%
X131238200Y-96215200D03*
%TD*%
D14*
%TO.P,,1,Pin_1*%
%TO.N,GND*%
X121920000Y-97790000D03*
%TD*%
D15*
%TO.P,J1,S1,SHIELD*%
%TO.N,GND*%
X125360000Y-113607800D03*
X125360000Y-117407800D03*
X134000000Y-113607800D03*
X134000000Y-117407800D03*
%TD*%
D14*
%TO.P,J2,1,Pin_1*%
%TO.N,GND*%
X124297000Y-97757000D03*
D16*
%TO.P,J2,2,Pin_2*%
%TO.N,VCC*%
X124297000Y-99587600D03*
%TD*%
%TO.P,,2,Pin_2*%
%TO.N,VCC*%
X121919000Y-99568000D03*
%TD*%
D17*
%TO.N,GND*%
X133502400Y-103759000D03*
X124866400Y-101422200D03*
X132130800Y-102800400D03*
X124866400Y-102946200D03*
X123266200Y-101473000D03*
X123266200Y-102997000D03*
X133502400Y-100076000D03*
X132130800Y-100971600D03*
D18*
X131241800Y-101759000D03*
D17*
X133502400Y-101854000D03*
D19*
%TO.N,VCC*%
X127406400Y-99587600D03*
X131216400Y-98298000D03*
%TD*%
D20*
%TO.N,VCC*%
X130316700Y-99574600D02*
X128854200Y-99574600D01*
X128841200Y-99587600D02*
X127406400Y-99587600D01*
X130316700Y-99574600D02*
X131216400Y-98674900D01*
X128854200Y-99574600D02*
X128841200Y-99587600D01*
X131216400Y-98674900D02*
X131216400Y-98298000D01*
%TD*%
%TA.AperFunction,Conductor*%
%TO.N,VCC*%
G36*
X127479143Y-99287221D02*
G01*
X127617148Y-99328447D01*
X127619142Y-99329249D01*
X127719135Y-99380609D01*
X127719479Y-99380794D01*
X127751805Y-99398999D01*
X127859137Y-99442999D01*
X127929831Y-99455900D01*
X128009350Y-99460024D01*
X128017433Y-99463874D01*
X128020443Y-99471708D01*
X128020443Y-99703601D01*
X128017016Y-99711874D01*
X128009465Y-99715279D01*
X127915781Y-99721073D01*
X127837355Y-99738519D01*
X127719309Y-99794499D01*
X127624805Y-99843539D01*
X127623485Y-99844124D01*
X127555713Y-99869260D01*
X127554494Y-99869638D01*
X127478766Y-99888657D01*
X127469907Y-99887348D01*
X127464568Y-99880159D01*
X127464453Y-99879650D01*
X127405868Y-99589914D01*
X127405868Y-99585285D01*
X127464339Y-99296113D01*
X127469337Y-99288685D01*
X127478125Y-99286966D01*
X127479143Y-99287221D01*
G37*
%TD.AperFunction*%
%TD*%
%TA.AperFunction,Conductor*%
%TO.N,VCC*%
G36*
X131221106Y-98299983D02*
G01*
X131464767Y-98463910D01*
X131469718Y-98471372D01*
X131468156Y-98479821D01*
X131365192Y-98644471D01*
X131365193Y-98644472D01*
X131309656Y-98734239D01*
X131308993Y-98735199D01*
X131244392Y-98819514D01*
X131243635Y-98820406D01*
X131146782Y-98923583D01*
X131138622Y-98927269D01*
X131130244Y-98924105D01*
X131129979Y-98923848D01*
X130966099Y-98759968D01*
X130962672Y-98751695D01*
X130965021Y-98744664D01*
X131006060Y-98690127D01*
X131018023Y-98634709D01*
X131004905Y-98581031D01*
X130976807Y-98523594D01*
X130950604Y-98471765D01*
X130949961Y-98470226D01*
X130916593Y-98371066D01*
X130917202Y-98362131D01*
X130923950Y-98356245D01*
X130925370Y-98355865D01*
X131212323Y-98298253D01*
X131221106Y-98299983D01*
G37*
%TD.AperFunction*%
%TD*%
%TA.AperFunction,Conductor*%
%TO.N,GND*%
G36*
X126627045Y-99824006D02*
G01*
X126627048Y-99824018D01*
X126688142Y-99971514D01*
X126688144Y-99971518D01*
X126776839Y-100104259D01*
X126776845Y-100104267D01*
X126889732Y-100217154D01*
X126889740Y-100217160D01*
X127022481Y-100305855D01*
X127022485Y-100305857D01*
X127134994Y-100352459D01*
X127169986Y-100366953D01*
X127326568Y-100398099D01*
X127326572Y-100398100D01*
X127326573Y-100398100D01*
X127486227Y-100398100D01*
X127555957Y-100384228D01*
X127567328Y-100382512D01*
X127601898Y-100378931D01*
X127601901Y-100378930D01*
X127601903Y-100378930D01*
X127677626Y-100359912D01*
X127704212Y-100352458D01*
X127705431Y-100352080D01*
X127731497Y-100343212D01*
X127799269Y-100318076D01*
X127828301Y-100306272D01*
X127829621Y-100305687D01*
X127857637Y-100292225D01*
X127942184Y-100248351D01*
X127946070Y-100246422D01*
X127974799Y-100232798D01*
X128020274Y-100221076D01*
X128040669Y-100219815D01*
X128079018Y-100215971D01*
X128079019Y-100215970D01*
X128081539Y-100215718D01*
X128093907Y-100215100D01*
X128903004Y-100215100D01*
X128903004Y-100215099D01*
X128956380Y-100204482D01*
X128980571Y-100202100D01*
X130378504Y-100202100D01*
X130378505Y-100202099D01*
X130499735Y-100177986D01*
X130582548Y-100143683D01*
X130613933Y-100130683D01*
X130716708Y-100062011D01*
X130804111Y-99974608D01*
X131051719Y-99727000D01*
X131318000Y-99727000D01*
X131318000Y-104045000D01*
X126492000Y-104045000D01*
X126492000Y-99727000D01*
X126607749Y-99727000D01*
X126627045Y-99824006D01*
G37*
%TD.AperFunction*%
%TD*%
%TA.AperFunction,Conductor*%
%TO.N,GND*%
G36*
X139421939Y-94500185D02*
G01*
X139467694Y-94552989D01*
X139478900Y-94604500D01*
X139478900Y-119365100D01*
X139459215Y-119432139D01*
X139406411Y-119477894D01*
X139354900Y-119489100D01*
X120639500Y-119489100D01*
X120572461Y-119469415D01*
X120526706Y-119416611D01*
X120515500Y-119365100D01*
X120515500Y-117004379D01*
X124310000Y-117004379D01*
X124310000Y-117157800D01*
X125060000Y-117157800D01*
X125060000Y-117657800D01*
X124310000Y-117657800D01*
X124310000Y-117811220D01*
X124350348Y-118014066D01*
X124350350Y-118014074D01*
X124429500Y-118205158D01*
X124429505Y-118205168D01*
X124544410Y-118377135D01*
X124544413Y-118377139D01*
X124690660Y-118523386D01*
X124690664Y-118523389D01*
X124862631Y-118638294D01*
X124862641Y-118638299D01*
X125053723Y-118717448D01*
X125053725Y-118717449D01*
X125110000Y-118728642D01*
X125110000Y-117874788D01*
X125119940Y-117892005D01*
X125175795Y-117947860D01*
X125244204Y-117987356D01*
X125320504Y-118007800D01*
X125399496Y-118007800D01*
X125475796Y-117987356D01*
X125544205Y-117947860D01*
X125600060Y-117892005D01*
X125610000Y-117874788D01*
X125610000Y-118728642D01*
X125666274Y-118717449D01*
X125666276Y-118717448D01*
X125857358Y-118638299D01*
X125857368Y-118638294D01*
X126029335Y-118523389D01*
X126029339Y-118523386D01*
X126175586Y-118377139D01*
X126175589Y-118377135D01*
X126290494Y-118205168D01*
X126290499Y-118205158D01*
X126369649Y-118014074D01*
X126369651Y-118014066D01*
X126409999Y-117811220D01*
X126410000Y-117811217D01*
X126410000Y-117657800D01*
X125660000Y-117657800D01*
X125660000Y-117157800D01*
X126410000Y-117157800D01*
X126410000Y-117004383D01*
X126409999Y-117004379D01*
X132950000Y-117004379D01*
X132950000Y-117157800D01*
X133700000Y-117157800D01*
X133700000Y-117657800D01*
X132950000Y-117657800D01*
X132950000Y-117811220D01*
X132990348Y-118014066D01*
X132990350Y-118014074D01*
X133069500Y-118205158D01*
X133069505Y-118205168D01*
X133184410Y-118377135D01*
X133184413Y-118377139D01*
X133330660Y-118523386D01*
X133330664Y-118523389D01*
X133502631Y-118638294D01*
X133502641Y-118638299D01*
X133693723Y-118717448D01*
X133693725Y-118717449D01*
X133750000Y-118728642D01*
X133750000Y-117874788D01*
X133759940Y-117892005D01*
X133815795Y-117947860D01*
X133884204Y-117987356D01*
X133960504Y-118007800D01*
X134039496Y-118007800D01*
X134115796Y-117987356D01*
X134184205Y-117947860D01*
X134240060Y-117892005D01*
X134250000Y-117874788D01*
X134250000Y-118728642D01*
X134306274Y-118717449D01*
X134306276Y-118717448D01*
X134497358Y-118638299D01*
X134497368Y-118638294D01*
X134669335Y-118523389D01*
X134669339Y-118523386D01*
X134815586Y-118377139D01*
X134815589Y-118377135D01*
X134930494Y-118205168D01*
X134930499Y-118205158D01*
X135009649Y-118014074D01*
X135009651Y-118014066D01*
X135049999Y-117811220D01*
X135050000Y-117811217D01*
X135050000Y-117657800D01*
X134300000Y-117657800D01*
X134300000Y-117157800D01*
X135050000Y-117157800D01*
X135050000Y-117004383D01*
X135049999Y-117004379D01*
X135009651Y-116801533D01*
X135009649Y-116801525D01*
X134930499Y-116610441D01*
X134930494Y-116610431D01*
X134815589Y-116438464D01*
X134815586Y-116438460D01*
X134669339Y-116292213D01*
X134669335Y-116292210D01*
X134497368Y-116177305D01*
X134497358Y-116177300D01*
X134306272Y-116098149D01*
X134306267Y-116098147D01*
X134250000Y-116086955D01*
X134250000Y-116940811D01*
X134240060Y-116923595D01*
X134184205Y-116867740D01*
X134115796Y-116828244D01*
X134039496Y-116807800D01*
X133960504Y-116807800D01*
X133884204Y-116828244D01*
X133815795Y-116867740D01*
X133759940Y-116923595D01*
X133750000Y-116940811D01*
X133750000Y-116086956D01*
X133749999Y-116086955D01*
X133693732Y-116098147D01*
X133693727Y-116098149D01*
X133502641Y-116177300D01*
X133502631Y-116177305D01*
X133330664Y-116292210D01*
X133330660Y-116292213D01*
X133184413Y-116438460D01*
X133184410Y-116438464D01*
X133069505Y-116610431D01*
X133069500Y-116610441D01*
X132990350Y-116801525D01*
X132990348Y-116801533D01*
X132950000Y-117004379D01*
X126409999Y-117004379D01*
X126369651Y-116801533D01*
X126369649Y-116801525D01*
X126290499Y-116610441D01*
X126290494Y-116610431D01*
X126175589Y-116438464D01*
X126175586Y-116438460D01*
X126029339Y-116292213D01*
X126029335Y-116292210D01*
X125857368Y-116177305D01*
X125857358Y-116177300D01*
X125666272Y-116098149D01*
X125666267Y-116098147D01*
X125610000Y-116086955D01*
X125610000Y-116940811D01*
X125600060Y-116923595D01*
X125544205Y-116867740D01*
X125475796Y-116828244D01*
X125399496Y-116807800D01*
X125320504Y-116807800D01*
X125244204Y-116828244D01*
X125175795Y-116867740D01*
X125119940Y-116923595D01*
X125110000Y-116940811D01*
X125110000Y-116086956D01*
X125109999Y-116086955D01*
X125053732Y-116098147D01*
X125053727Y-116098149D01*
X124862641Y-116177300D01*
X124862631Y-116177305D01*
X124690664Y-116292210D01*
X124690660Y-116292213D01*
X124544413Y-116438460D01*
X124544410Y-116438464D01*
X124429505Y-116610431D01*
X124429500Y-116610441D01*
X124350350Y-116801525D01*
X124350348Y-116801533D01*
X124310000Y-117004379D01*
X120515500Y-117004379D01*
X120515500Y-113204379D01*
X124310000Y-113204379D01*
X124310000Y-113357800D01*
X125060000Y-113357800D01*
X125060000Y-113857800D01*
X124310000Y-113857800D01*
X124310000Y-114011220D01*
X124350348Y-114214066D01*
X124350350Y-114214074D01*
X124429500Y-114405158D01*
X124429505Y-114405168D01*
X124544410Y-114577135D01*
X124544413Y-114577139D01*
X124690660Y-114723386D01*
X124690664Y-114723389D01*
X124862631Y-114838294D01*
X124862641Y-114838299D01*
X125053723Y-114917448D01*
X125053725Y-114917449D01*
X125110000Y-114928642D01*
X125110000Y-114074788D01*
X125119940Y-114092005D01*
X125175795Y-114147860D01*
X125244204Y-114187356D01*
X125320504Y-114207800D01*
X125399496Y-114207800D01*
X125475796Y-114187356D01*
X125544205Y-114147860D01*
X125600060Y-114092005D01*
X125610000Y-114074788D01*
X125610000Y-114928642D01*
X125666274Y-114917449D01*
X125666276Y-114917448D01*
X125857358Y-114838299D01*
X125857368Y-114838294D01*
X126029335Y-114723389D01*
X126029339Y-114723386D01*
X126175586Y-114577139D01*
X126175589Y-114577135D01*
X126290494Y-114405168D01*
X126290499Y-114405158D01*
X126369649Y-114214074D01*
X126369651Y-114214066D01*
X126409999Y-114011220D01*
X126410000Y-114011217D01*
X126410000Y-113857800D01*
X125660000Y-113857800D01*
X125660000Y-113357800D01*
X126410000Y-113357800D01*
X126410000Y-113204383D01*
X126409999Y-113204379D01*
X132950000Y-113204379D01*
X132950000Y-113357800D01*
X133700000Y-113357800D01*
X133700000Y-113857800D01*
X132950000Y-113857800D01*
X132950000Y-114011220D01*
X132990348Y-114214066D01*
X132990350Y-114214074D01*
X133069500Y-114405158D01*
X133069505Y-114405168D01*
X133184410Y-114577135D01*
X133184413Y-114577139D01*
X133330660Y-114723386D01*
X133330664Y-114723389D01*
X133502631Y-114838294D01*
X133502641Y-114838299D01*
X133693723Y-114917448D01*
X133693725Y-114917449D01*
X133750000Y-114928642D01*
X133750000Y-114074788D01*
X133759940Y-114092005D01*
X133815795Y-114147860D01*
X133884204Y-114187356D01*
X133960504Y-114207800D01*
X134039496Y-114207800D01*
X134115796Y-114187356D01*
X134184205Y-114147860D01*
X134240060Y-114092005D01*
X134250000Y-114074788D01*
X134250000Y-114928642D01*
X134306274Y-114917449D01*
X134306276Y-114917448D01*
X134497358Y-114838299D01*
X134497368Y-114838294D01*
X134669335Y-114723389D01*
X134669339Y-114723386D01*
X134815586Y-114577139D01*
X134815589Y-114577135D01*
X134930494Y-114405168D01*
X134930499Y-114405158D01*
X135009649Y-114214074D01*
X135009651Y-114214066D01*
X135049999Y-114011220D01*
X135050000Y-114011217D01*
X135050000Y-113857800D01*
X134300000Y-113857800D01*
X134300000Y-113357800D01*
X135050000Y-113357800D01*
X135050000Y-113204383D01*
X135049999Y-113204379D01*
X135009651Y-113001533D01*
X135009649Y-113001525D01*
X134930499Y-112810441D01*
X134930494Y-112810431D01*
X134815589Y-112638464D01*
X134815586Y-112638460D01*
X134669339Y-112492213D01*
X134669335Y-112492210D01*
X134497368Y-112377305D01*
X134497358Y-112377300D01*
X134306272Y-112298149D01*
X134306267Y-112298147D01*
X134250000Y-112286955D01*
X134250000Y-113140811D01*
X134240060Y-113123595D01*
X134184205Y-113067740D01*
X134115796Y-113028244D01*
X134039496Y-113007800D01*
X133960504Y-113007800D01*
X133884204Y-113028244D01*
X133815795Y-113067740D01*
X133759940Y-113123595D01*
X133750000Y-113140811D01*
X133750000Y-112286956D01*
X133749999Y-112286955D01*
X133693732Y-112298147D01*
X133693727Y-112298149D01*
X133502641Y-112377300D01*
X133502631Y-112377305D01*
X133330664Y-112492210D01*
X133330660Y-112492213D01*
X133184413Y-112638460D01*
X133184410Y-112638464D01*
X133069505Y-112810431D01*
X133069500Y-112810441D01*
X132990350Y-113001525D01*
X132990348Y-113001533D01*
X132950000Y-113204379D01*
X126409999Y-113204379D01*
X126369651Y-113001533D01*
X126369649Y-113001525D01*
X126290499Y-112810441D01*
X126290494Y-112810431D01*
X126175589Y-112638464D01*
X126175586Y-112638460D01*
X126029339Y-112492213D01*
X126029335Y-112492210D01*
X125857368Y-112377305D01*
X125857358Y-112377300D01*
X125666272Y-112298149D01*
X125666267Y-112298147D01*
X125610000Y-112286955D01*
X125610000Y-113140811D01*
X125600060Y-113123595D01*
X125544205Y-113067740D01*
X125475796Y-113028244D01*
X125399496Y-113007800D01*
X125320504Y-113007800D01*
X125244204Y-113028244D01*
X125175795Y-113067740D01*
X125119940Y-113123595D01*
X125110000Y-113140811D01*
X125110000Y-112286956D01*
X125109999Y-112286955D01*
X125053732Y-112298147D01*
X125053727Y-112298149D01*
X124862641Y-112377300D01*
X124862631Y-112377305D01*
X124690664Y-112492210D01*
X124690660Y-112492213D01*
X124544413Y-112638460D01*
X124544410Y-112638464D01*
X124429505Y-112810431D01*
X124429500Y-112810441D01*
X124350350Y-113001525D01*
X124350348Y-113001533D01*
X124310000Y-113204379D01*
X120515500Y-113204379D01*
X120515500Y-100268668D01*
X120535185Y-100201629D01*
X120587989Y-100155874D01*
X120657147Y-100145930D01*
X120720703Y-100174955D01*
X120739815Y-100195779D01*
X120804586Y-100284928D01*
X120927072Y-100407414D01*
X121067212Y-100509232D01*
X121221555Y-100587873D01*
X121386299Y-100641402D01*
X121557389Y-100668500D01*
X121557390Y-100668500D01*
X122280610Y-100668500D01*
X122280611Y-100668500D01*
X122451701Y-100641402D01*
X122616445Y-100587873D01*
X122770788Y-100509232D01*
X122910928Y-100407414D01*
X123010519Y-100307823D01*
X123071842Y-100274338D01*
X123141534Y-100279322D01*
X123185881Y-100307823D01*
X123305072Y-100427014D01*
X123445212Y-100528832D01*
X123599555Y-100607473D01*
X123764299Y-100661002D01*
X123935389Y-100688100D01*
X123935390Y-100688100D01*
X124658610Y-100688100D01*
X124658611Y-100688100D01*
X124829701Y-100661002D01*
X124994445Y-100607473D01*
X125148788Y-100528832D01*
X125288928Y-100427014D01*
X125411414Y-100304528D01*
X125513232Y-100164388D01*
X125591873Y-100010045D01*
X125645402Y-99845301D01*
X125664139Y-99727000D01*
X126492000Y-99727000D01*
X126492000Y-104045000D01*
X131318000Y-104045000D01*
X131318000Y-99727000D01*
X131051719Y-99727000D01*
X131484606Y-99294112D01*
X131515341Y-99269552D01*
X131609896Y-99168822D01*
X131703811Y-99074908D01*
X131743001Y-99016256D01*
X131772483Y-98972133D01*
X131799232Y-98907555D01*
X131801945Y-98901004D01*
X131804396Y-98896281D01*
X131805438Y-98895193D01*
X131809329Y-98887640D01*
X131814360Y-98879595D01*
X131896752Y-98747844D01*
X131919207Y-98708038D01*
X131919208Y-98708034D01*
X131922072Y-98702958D01*
X131929083Y-98690255D01*
X131934656Y-98681916D01*
X131995753Y-98534414D01*
X132026900Y-98377827D01*
X132026900Y-98218173D01*
X131995753Y-98061586D01*
X131995751Y-98061581D01*
X131934657Y-97914085D01*
X131934655Y-97914081D01*
X131845960Y-97781340D01*
X131845954Y-97781332D01*
X131733067Y-97668445D01*
X131733059Y-97668439D01*
X131696780Y-97644198D01*
X131651974Y-97590586D01*
X131643267Y-97521261D01*
X131673421Y-97458234D01*
X131727354Y-97423164D01*
X131737231Y-97419954D01*
X131919549Y-97327059D01*
X132085094Y-97206782D01*
X132085095Y-97206782D01*
X132229782Y-97062095D01*
X132229782Y-97062094D01*
X132350059Y-96896549D01*
X132442955Y-96714229D01*
X132506190Y-96519613D01*
X132514809Y-96465200D01*
X131553886Y-96465200D01*
X131558280Y-96460806D01*
X131610941Y-96369594D01*
X131638200Y-96267861D01*
X131638200Y-96162539D01*
X131610941Y-96060806D01*
X131558280Y-95969594D01*
X131553886Y-95965200D01*
X132514809Y-95965200D01*
X132506190Y-95910786D01*
X132442955Y-95716170D01*
X132350059Y-95533850D01*
X132229782Y-95368305D01*
X132229782Y-95368304D01*
X132085095Y-95223617D01*
X131919549Y-95103340D01*
X131737229Y-95010444D01*
X131542613Y-94947209D01*
X131488200Y-94938590D01*
X131488200Y-95899514D01*
X131483806Y-95895120D01*
X131392594Y-95842459D01*
X131290861Y-95815200D01*
X131185539Y-95815200D01*
X131083806Y-95842459D01*
X130992594Y-95895120D01*
X130988200Y-95899514D01*
X130988200Y-94938590D01*
X130933786Y-94947209D01*
X130739170Y-95010444D01*
X130556850Y-95103340D01*
X130391305Y-95223617D01*
X130391304Y-95223617D01*
X130246617Y-95368304D01*
X130246617Y-95368305D01*
X130126340Y-95533850D01*
X130078965Y-95626829D01*
X130030990Y-95677625D01*
X129963169Y-95694420D01*
X129897034Y-95671882D01*
X129857995Y-95626829D01*
X129810619Y-95533850D01*
X129810487Y-95533590D01*
X129802756Y-95522949D01*
X129690171Y-95367986D01*
X129545413Y-95223228D01*
X129379813Y-95102915D01*
X129379812Y-95102914D01*
X129379810Y-95102913D01*
X129322853Y-95073891D01*
X129197423Y-95009981D01*
X129002734Y-94946722D01*
X128828195Y-94919078D01*
X128800552Y-94914700D01*
X128595848Y-94914700D01*
X128571529Y-94918551D01*
X128393665Y-94946722D01*
X128198976Y-95009981D01*
X128016586Y-95102915D01*
X127850986Y-95223228D01*
X127706228Y-95367986D01*
X127585915Y-95533586D01*
X127492981Y-95715976D01*
X127429722Y-95910665D01*
X127397700Y-96112848D01*
X127397700Y-96317551D01*
X127429722Y-96519734D01*
X127492981Y-96714423D01*
X127556517Y-96839117D01*
X127571037Y-96867615D01*
X127585915Y-96896813D01*
X127706228Y-97062413D01*
X127850986Y-97207171D01*
X128005949Y-97319756D01*
X128016590Y-97327487D01*
X128123578Y-97382000D01*
X128198976Y-97420418D01*
X128198978Y-97420418D01*
X128198981Y-97420420D01*
X128303337Y-97454327D01*
X128393665Y-97483677D01*
X128494757Y-97499688D01*
X128595848Y-97515700D01*
X128595849Y-97515700D01*
X128800551Y-97515700D01*
X128800552Y-97515700D01*
X129002734Y-97483677D01*
X129197419Y-97420420D01*
X129379810Y-97327487D01*
X129480541Y-97254302D01*
X129545413Y-97207171D01*
X129545415Y-97207168D01*
X129545419Y-97207166D01*
X129690166Y-97062419D01*
X129690168Y-97062415D01*
X129690171Y-97062413D01*
X129810484Y-96896814D01*
X129810485Y-96896813D01*
X129810487Y-96896810D01*
X129857995Y-96803569D01*
X129905970Y-96752774D01*
X129973791Y-96735979D01*
X130039925Y-96758516D01*
X130078965Y-96803570D01*
X130126340Y-96896549D01*
X130246617Y-97062094D01*
X130246617Y-97062095D01*
X130391304Y-97206782D01*
X130556850Y-97327059D01*
X130739284Y-97420014D01*
X130790080Y-97467988D01*
X130806875Y-97535809D01*
X130784338Y-97601944D01*
X130751880Y-97633601D01*
X130699736Y-97668442D01*
X130699732Y-97668445D01*
X130586845Y-97781332D01*
X130586839Y-97781340D01*
X130498144Y-97914081D01*
X130498142Y-97914085D01*
X130437048Y-98061581D01*
X130437045Y-98061593D01*
X130405900Y-98218168D01*
X130405900Y-98218172D01*
X130405900Y-98218173D01*
X130405900Y-98377827D01*
X130405901Y-98377831D01*
X130429495Y-98496450D01*
X130423266Y-98566041D01*
X130395558Y-98608321D01*
X130093098Y-98910782D01*
X130031777Y-98944266D01*
X130005419Y-98947100D01*
X128792396Y-98947100D01*
X128761764Y-98953193D01*
X128739020Y-98957717D01*
X128714830Y-98960100D01*
X128072483Y-98960100D01*
X128057910Y-98959241D01*
X128053185Y-98958681D01*
X128035531Y-98955202D01*
X128014605Y-98954116D01*
X128010547Y-98953636D01*
X127999067Y-98948736D01*
X127965319Y-98939122D01*
X127958962Y-98935622D01*
X127958933Y-98935606D01*
X127958905Y-98935591D01*
X127958561Y-98935406D01*
X127950093Y-98930955D01*
X127850100Y-98879595D01*
X127850096Y-98879593D01*
X127807782Y-98860266D01*
X127807766Y-98860259D01*
X127806357Y-98859692D01*
X127805778Y-98859460D01*
X127805773Y-98859458D01*
X127805755Y-98859451D01*
X127805756Y-98859451D01*
X127761876Y-98844110D01*
X127761857Y-98844104D01*
X127761837Y-98844097D01*
X127645363Y-98809303D01*
X127642814Y-98808247D01*
X127639865Y-98807660D01*
X127634274Y-98805990D01*
X127634272Y-98805989D01*
X127623847Y-98802875D01*
X127601997Y-98796878D01*
X127601991Y-98796876D01*
X127601971Y-98796871D01*
X127600953Y-98796616D01*
X127524782Y-98783624D01*
X127524313Y-98783544D01*
X127508241Y-98781478D01*
X127492014Y-98778251D01*
X127486227Y-98777100D01*
X127326573Y-98777100D01*
X127326568Y-98777100D01*
X127169993Y-98808245D01*
X127169981Y-98808248D01*
X127022485Y-98869342D01*
X127022481Y-98869344D01*
X126889740Y-98958039D01*
X126889732Y-98958045D01*
X126776845Y-99070932D01*
X126776839Y-99070940D01*
X126688144Y-99203681D01*
X126688142Y-99203685D01*
X126627048Y-99351181D01*
X126627045Y-99351193D01*
X126595900Y-99507768D01*
X126595900Y-99667431D01*
X126607749Y-99727000D01*
X126492000Y-99727000D01*
X125664139Y-99727000D01*
X125672500Y-99674211D01*
X125672500Y-99500989D01*
X125645402Y-99329899D01*
X125591873Y-99165155D01*
X125513232Y-99010812D01*
X125411414Y-98870672D01*
X125402882Y-98862140D01*
X125369397Y-98800817D01*
X125374381Y-98731125D01*
X125402882Y-98686777D01*
X125514317Y-98575342D01*
X125606356Y-98426124D01*
X125606358Y-98426119D01*
X125661505Y-98259697D01*
X125661506Y-98259690D01*
X125671999Y-98156986D01*
X125672000Y-98156973D01*
X125672000Y-98007000D01*
X124577330Y-98007000D01*
X124597075Y-97987255D01*
X124646444Y-97901745D01*
X124672000Y-97806370D01*
X124672000Y-97707630D01*
X124646444Y-97612255D01*
X124597075Y-97526745D01*
X124577330Y-97507000D01*
X125671999Y-97507000D01*
X125671999Y-97357028D01*
X125671998Y-97357013D01*
X125661505Y-97254302D01*
X125606358Y-97087880D01*
X125606356Y-97087875D01*
X125514315Y-96938654D01*
X125390345Y-96814684D01*
X125241124Y-96722643D01*
X125241119Y-96722641D01*
X125074697Y-96667494D01*
X125074690Y-96667493D01*
X124971986Y-96657000D01*
X124547000Y-96657000D01*
X124547000Y-97476670D01*
X124527255Y-97456925D01*
X124441745Y-97407556D01*
X124346370Y-97382000D01*
X124247630Y-97382000D01*
X124152255Y-97407556D01*
X124066745Y-97456925D01*
X124047000Y-97476670D01*
X124047000Y-96657000D01*
X123622028Y-96657000D01*
X123622012Y-96657001D01*
X123519302Y-96667494D01*
X123352880Y-96722641D01*
X123352875Y-96722643D01*
X123203656Y-96814682D01*
X123179222Y-96839117D01*
X123117898Y-96872601D01*
X123048206Y-96867615D01*
X123019507Y-96851448D01*
X123019491Y-96851475D01*
X123018824Y-96851063D01*
X123014637Y-96848705D01*
X123013348Y-96847686D01*
X122864124Y-96755643D01*
X122864119Y-96755641D01*
X122697697Y-96700494D01*
X122697690Y-96700493D01*
X122594986Y-96690000D01*
X122170000Y-96690000D01*
X122170000Y-97509670D01*
X122150255Y-97489925D01*
X122064745Y-97440556D01*
X121969370Y-97415000D01*
X121870630Y-97415000D01*
X121775255Y-97440556D01*
X121689745Y-97489925D01*
X121670000Y-97509670D01*
X121670000Y-96690000D01*
X121245028Y-96690000D01*
X121245012Y-96690001D01*
X121142302Y-96700494D01*
X120975880Y-96755641D01*
X120975875Y-96755643D01*
X120826654Y-96847684D01*
X120727181Y-96947158D01*
X120665858Y-96980643D01*
X120596166Y-96975659D01*
X120540233Y-96933787D01*
X120515816Y-96868323D01*
X120515500Y-96859477D01*
X120515500Y-94604500D01*
X120535185Y-94537461D01*
X120587989Y-94491706D01*
X120639500Y-94480500D01*
X126426108Y-94480500D01*
X139354900Y-94480500D01*
X139421939Y-94500185D01*
G37*
%TD.AperFunction*%
%TA.AperFunction,Conductor*%
G36*
X123996925Y-97526745D02*
G01*
X123947556Y-97612255D01*
X123922000Y-97707630D01*
X123922000Y-97806370D01*
X123947556Y-97901745D01*
X123996925Y-97987255D01*
X124016670Y-98007000D01*
X123422241Y-98007000D01*
X123366996Y-98037166D01*
X123340638Y-98040000D01*
X122200330Y-98040000D01*
X122220075Y-98020255D01*
X122269444Y-97934745D01*
X122295000Y-97839370D01*
X122295000Y-97740630D01*
X122269444Y-97645255D01*
X122220075Y-97559745D01*
X122200330Y-97540000D01*
X122794759Y-97540000D01*
X122850004Y-97509834D01*
X122876362Y-97507000D01*
X124016670Y-97507000D01*
X123996925Y-97526745D01*
G37*
%TD.AperFunction*%
%TD*%
M02*
