%TF.GenerationSoftware,KiCad,Pcbnew,9.0.0*%
%TF.CreationDate,2025-11-29T18:06:43+01:00*%
%TF.ProjectId,Battery power module,42617474-6572-4792-9070-6f776572206d,rev?*%
%TF.SameCoordinates,Original*%
%TF.FileFunction,Soldermask,Top*%
%TF.FilePolarity,Negative*%
%FSLAX46Y46*%
G04 Gerber Fmt 4.6, Leading zero omitted, Abs format (unit mm)*
G04 Created by KiCad (PCBNEW 9.0.0) date 2025-11-29 18:06:43*
%MOMM*%
%LPD*%
G01*
G04 APERTURE LIST*
G04 Aperture macros list*
%AMRoundRect*
0 Rectangle with rounded corners*
0 $1 Rounding radius*
0 $2 $3 $4 $5 $6 $7 $8 $9 X,Y pos of 4 corners*
0 Add a 4 corners polygon primitive as box body*
4,1,4,$2,$3,$4,$5,$6,$7,$8,$9,$2,$3,0*
0 Add four circle primitives for the rounded corners*
1,1,$1+$1,$2,$3*
1,1,$1+$1,$4,$5*
1,1,$1+$1,$6,$7*
1,1,$1+$1,$8,$9*
0 Add four rect primitives between the rounded corners*
20,1,$1+$1,$2,$3,$4,$5,0*
20,1,$1+$1,$4,$5,$6,$7,0*
20,1,$1+$1,$6,$7,$8,$9,0*
20,1,$1+$1,$8,$9,$2,$3,0*%
G04 Aperture macros list end*
%ADD10RoundRect,0.075000X0.075000X-0.650000X0.075000X0.650000X-0.075000X0.650000X-0.075000X-0.650000X0*%
%ADD11R,1.880000X1.570000*%
%ADD12RoundRect,0.243750X-0.243750X-0.456250X0.243750X-0.456250X0.243750X0.456250X-0.243750X0.456250X0*%
%ADD13C,1.600000*%
%ADD14O,1.600000X1.600000*%
%ADD15RoundRect,0.200000X0.200000X0.275000X-0.200000X0.275000X-0.200000X-0.275000X0.200000X-0.275000X0*%
%ADD16RoundRect,0.250000X-0.625000X0.350000X-0.625000X-0.350000X0.625000X-0.350000X0.625000X0.350000X0*%
%ADD17RoundRect,0.175000X-0.175000X-0.425000X0.175000X-0.425000X0.175000X0.425000X-0.175000X0.425000X0*%
%ADD18RoundRect,0.190000X0.190000X0.410000X-0.190000X0.410000X-0.190000X-0.410000X0.190000X-0.410000X0*%
%ADD19RoundRect,0.200000X0.200000X0.400000X-0.200000X0.400000X-0.200000X-0.400000X0.200000X-0.400000X0*%
%ADD20RoundRect,0.175000X0.175000X0.425000X-0.175000X0.425000X-0.175000X-0.425000X0.175000X-0.425000X0*%
%ADD21RoundRect,0.190000X-0.190000X-0.410000X0.190000X-0.410000X0.190000X0.410000X-0.190000X0.410000X0*%
%ADD22RoundRect,0.200000X-0.200000X-0.400000X0.200000X-0.400000X0.200000X0.400000X-0.200000X0.400000X0*%
%ADD23O,1.100000X1.700000*%
%ADD24RoundRect,0.225000X0.250000X-0.225000X0.250000X0.225000X-0.250000X0.225000X-0.250000X-0.225000X0*%
%ADD25RoundRect,0.250000X-1.000000X-0.900000X1.000000X-0.900000X1.000000X0.900000X-1.000000X0.900000X0*%
%ADD26RoundRect,0.225000X0.225000X0.250000X-0.225000X0.250000X-0.225000X-0.250000X0.225000X-0.250000X0*%
%ADD27O,1.750000X1.200000*%
G04 APERTURE END LIST*
D10*
%TO.C,U1*%
X128154000Y-103886000D03*
X128654000Y-103886000D03*
X129154000Y-103886000D03*
X129654000Y-103886000D03*
X130154000Y-103886000D03*
X130154000Y-99586000D03*
X129654000Y-99586000D03*
X129154000Y-99586000D03*
X128654000Y-99586000D03*
X128154000Y-99586000D03*
D11*
X129154000Y-101736000D03*
%TD*%
D12*
%TO.C,D1*%
X135171200Y-105283000D03*
X137046200Y-105283000D03*
%TD*%
D13*
%TO.C,TH1*%
X128698200Y-96215200D03*
D14*
X131238200Y-96215200D03*
%TD*%
D15*
%TO.C,R6*%
X122935000Y-117348000D03*
X121285000Y-117348000D03*
%TD*%
D16*
%TO.C,*%
X121920000Y-97790000D03*
%TD*%
D17*
%TO.C,J1*%
X129180000Y-113527800D03*
D18*
X131200000Y-113527800D03*
D19*
X132430000Y-113527800D03*
D20*
X130180000Y-113527800D03*
D21*
X128160000Y-113527800D03*
D22*
X126930000Y-113527800D03*
D23*
X125360000Y-113607800D03*
X125360000Y-117407800D03*
X134000000Y-113607800D03*
X134000000Y-117407800D03*
%TD*%
D15*
%TO.C,R5*%
X122936000Y-115570000D03*
X121286000Y-115570000D03*
%TD*%
D12*
%TO.C,D2*%
X135171200Y-96266000D03*
X137046200Y-96266000D03*
%TD*%
D24*
%TO.C,C2*%
X126390400Y-99587600D03*
X126390400Y-98037600D03*
%TD*%
D25*
%TO.C,D3*%
X123834000Y-109728000D03*
X128134000Y-109728000D03*
%TD*%
D26*
%TO.C,C1*%
X128143000Y-106534200D03*
X126593000Y-106534200D03*
%TD*%
D16*
%TO.C,J2*%
X124297000Y-97757000D03*
D27*
X124297000Y-99587600D03*
%TD*%
%TO.C,*%
X121919000Y-99568000D03*
%TD*%
D15*
%TO.C,R4*%
X136918200Y-107315000D03*
X135268200Y-107315000D03*
%TD*%
%TO.C,R1*%
X136933700Y-103251000D03*
X135283700Y-103251000D03*
%TD*%
%TO.C,R2*%
X136933700Y-98298000D03*
X135283700Y-98298000D03*
%TD*%
%TO.C,R3*%
X136918200Y-109067600D03*
X135268200Y-109067600D03*
%TD*%
M02*
